<?xml version="1.0" encoding="UTF-8"?><svg id="Layer_1" xmlns="http://www.w3.org/2000/svg" viewBox="0 0 1921.23 686.87"><path d="m1655.49,686.87c-6.79,0-13.38-1.23-19.52-3.51-6.09,2.27-12.68,3.51-19.56,3.51h-60.52c-3.24,0-6.42-.28-9.51-.8-3.09.53-6.27.8-9.51.8h-136.27c-2.34,0-4.65-.14-6.92-.42-2.26.28-4.57.42-6.91.42h-129.35c-10.69,0-20.69-3-29.19-8.2-13.93,5.45-29.85,8.2-47.59,8.2h-101.68c-4.77,0-9.41-.6-13.83-1.72-4.42,1.12-9.06,1.72-13.83,1.72h-53.61c-20.54,0-38.5-11.06-48.25-27.55-9.74,16.49-27.7,27.55-48.25,27.55h-53.95c-3.24,0-6.42-.28-9.51-.8-3.09.53-6.27.8-9.51.8h-136.27c-10.39,0-20.11-2.83-28.45-7.75-13.6,5.15-29.08,7.75-46.25,7.75h-47.04c-23.96,0-44.61-5.02-61.5-14.93-16.84,9.91-37.42,14.93-61.27,14.93h-47.04c-14,0-26.87-1.71-38.52-5.12-7.24,3.33-15.2,5.12-23.38,5.12h-60.87c-12.54,0-24.27-4.16-33.72-11.29-9.46,7.13-21.19,11.29-33.72,11.29h-59.49c-10.94,0-21.48-3.2-30.44-9-20.1-1.12-38.84-9.48-53.19-23.83-31.89-31.89-31.89-83.79,0-115.68.61-.61,1.22-1.2,1.84-1.79v-16.04c-.59-.36-1.17-.72-1.75-1.1-19.23-12.6-28.8-35.68-24.14-58.19l.71-3.42-3.35-.98c-22.08-6.42-37.99-25.68-40.12-48.57-2.14-22.89,9.94-44.76,30.44-55.16l3.12-1.58-1.33-3.23c-8.75-21.26-3.61-45.71,12.96-61.65,6.75-6.5,14.84-11.04,23.47-13.5v-9.8c-.62-.58-1.23-1.18-1.84-1.78-31.89-31.89-31.89-83.79,0-115.68,15.45-15.45,35.99-23.96,57.84-23.96,0,0,0,0,0,0,13.43,0,26.37,3.21,37.93,9.28,9.43-7.05,21.09-11.13,33.51-11.13h58.92c10.24,0,19.96,2.78,28.35,7.7,8.32-4.9,18.01-7.7,28.36-7.7h48.41c4.38,0,8.64.5,12.72,1.45,4.09-.95,8.35-1.45,12.72-1.45h48.41c2.1,0,4.18.12,6.22.34,2.04-.23,4.12-.34,6.22-.34h116.73c7.27,0,14.21,1.38,20.59,3.91,9.72-2.6,20.31-3.91,31.69-3.91h40.94c23.65,0,43.85,5.64,60.04,16.77,2.59,1.78,5.06,3.7,7.41,5.73,10.21-13.66,26.51-22.5,44.88-22.5h52.83c10.4,0,20.28,2.87,28.77,7.95,8.49-5.08,18.37-7.95,28.77-7.95h52.83c8.67,0,16.89,1.97,24.21,5.49-10.97-19.55-9.24-43.82,4.52-61.63,10.78-13.96,27.26-21.77,44.32-21.77,5.18,0,10.42.72,15.56,2.21l11.86,3.43,4.35-11.55C1045.1,14.74,1065.53.36,1088.52,0c.29,0,.59,0,.88,0,22.64,0,43.09,13.65,51.76,34.63l4.71,11.41,11.74-3.8c5.67-1.83,11.48-2.72,17.22-2.72,16.45,0,32.41,7.26,43.24,20.41,14.61,17.75,16.89,42.63,5.75,62.74l-.16.28c5.58-1.86,11.55-2.87,17.76-2.87h47.58c6.08,0,11.94.97,17.43,2.76,5.49-1.79,11.34-2.76,17.43-2.76h47.58c3.79,0,7.49.38,11.06,1.09,3.58-.72,7.28-1.09,11.06-1.09h48.41c3.79,0,7.49.38,11.06,1.09,3.58-.72,7.28-1.09,11.06-1.09h41.49c6.88,0,13.56,1.26,19.76,3.6,6.16-2.33,12.83-3.6,19.8-3.6h44.26c3.79,0,7.49.38,11.06,1.09,3.58-.72,7.28-1.09,11.06-1.09h106.5c8.72,0,16.97,1.99,24.33,5.55,7.81-2.43,16.02-3.69,24.43-3.69,0,0,0,0,0,0,21.85,0,42.39,8.51,57.84,23.96,29.91,29.91,31.77,77.42,5.58,109.52.62-.02,1.25-.03,1.88-.03,14.12,0,28.05,5.34,38.69,15.5,16.63,15.88,21.86,40.31,13.2,61.6l-4.65,11.43,11.03,5.54c20.55,10.31,32.7,32.14,30.66,55.04s-17.88,42.22-39.93,48.72l-11.84,3.49,2.55,12.08c4.75,22.5-4.74,45.61-23.92,58.28-7.68,5.08-16.3,8.07-25.07,8.98v.53c.62.58,1.23,1.18,1.84,1.79,31.89,31.89,31.89,83.79,0,115.68-15.45,15.45-35.99,23.96-57.84,23.96-4.81,0-9.56-.41-14.21-1.22-9.26,6.47-20.42,10.09-32.07,10.09h-65.02Z" style="fill:#fff;"/><g><rect x="124.91" y="203.73" width="1641.88" height="392.47" style="fill:#fff; stroke:#000; stroke-miterlimit:10; stroke-width:8px;"/><polygon points="1197.21 186.97 1134.01 197.64 1139.67 261.48 1091.92 218.72 1045.53 262.95 1049.2 198.96 985.7 190.26 1038.01 153.23 1005.22 98.16 1066.79 115.98 1089.39 56 1113.85 115.24 1174.84 95.52 1143.77 151.59 1197.21 186.97" style="fill:#fde25d; stroke:#000; stroke-miterlimit:10; stroke-width:8px;"/><g><path d="m252.23,353.66l-5.53-26.56h-42.6l-5.81,26.56h-47.58l45.64-177.59h58.92l45.64,177.59h-48.68Zm-40.66-60.86h27.66l-13.55-63.9-14.11,63.9Z" style="fill:#bdb1fb; stroke:#000; stroke-miterlimit:10; stroke-width:8px;"/><path d="m385.83,176.07h48.41v143.29c0,22.87-13.55,34.3-40.66,34.3h-40.94c-27.11,0-40.66-11.43-40.66-34.3v-143.29h48.41v136.93c0,4.06,2.3,6.09,6.92,6.09h11.62c4.61,0,6.92-2.03,6.92-6.09v-136.93Z" style="fill:#bdb1fb; stroke:#000; stroke-miterlimit:10; stroke-width:8px;"/><path d="m563.42,176.07v34.58h-34.3v143.01h-48.41v-143.01h-34.02v-34.58h116.73Z" style="fill:#bdb1fb; stroke:#000; stroke-miterlimit:10; stroke-width:8px;"/><path d="m615.7,176.07h40.94c27.11,0,40.66,11.44,40.66,34.3v108.99c0,22.87-13.55,34.3-40.66,34.3h-40.94c-27.11,0-40.66-11.43-40.66-34.3v-108.99c0-22.86,13.55-34.3,40.66-34.3Zm33.19,136.93v-96.26c0-4.05-2.31-6.09-6.92-6.09h-11.62c-4.61,0-6.92,2.03-6.92,6.09v96.26c0,4.06,2.3,6.09,6.92,6.09h11.62c4.61,0,6.92-2.03,6.92-6.09Z" style="fill:#bdb1fb; stroke:#000; stroke-miterlimit:10; stroke-width:8px;"/></g><g><path d="m812.11,353.66h-43.15v-177.59h52.83l28.77,94.88,28.77-94.88h52.83v177.59h-42.88v-112.86l-22.13,74.41h-33.19l-21.85-73.86v112.31Z" style="fill:#bdb1fb; stroke:#000; stroke-miterlimit:10; stroke-width:8px;"/><path d="m1044.75,353.66l-5.53-26.56h-42.6l-5.81,26.56h-47.58l45.64-177.59h58.92l45.64,177.59h-48.68Zm-40.66-60.86h27.66l-13.55-63.9-14.11,63.9Z" style="fill:#bdb1fb; stroke:#000; stroke-miterlimit:10; stroke-width:8px;"/><path d="m1223.44,242.46h-48.41v-28.49c0-4.05-2.31-6.09-6.92-6.09h-9.68c-4.61,0-6.92,2.03-6.92,6.09v101.8c0,4.06,2.3,6.09,6.92,6.09h9.68c4.61,0,6.92-2.03,6.92-6.09v-27.38h48.41v30.98c0,22.87-13.55,34.3-40.66,34.3h-39c-27.11,0-40.66-11.43-40.66-34.3v-108.99c0-22.86,13.55-34.3,40.66-34.3h39c27.11,0,40.66,11.44,40.66,34.3v32.09Z" style="fill:#bdb1fb; stroke:#000; stroke-miterlimit:10; stroke-width:8px;"/><path d="m1323.85,176.07h47.58v177.59h-47.58v-70.26h-34.85v70.26h-47.58v-177.59h47.58v72.75h34.85v-72.75Z" style="fill:#bdb1fb; stroke:#000; stroke-miterlimit:10; stroke-width:8px;"/><path d="m1393.56,176.07h48.41v177.59h-48.41v-177.59Z" style="fill:#bdb1fb; stroke:#000; stroke-miterlimit:10; stroke-width:8px;"/><path d="m1545.14,176.07h44.26v177.59h-41.49l-39.56-93.22v93.22h-44.26v-177.59h41.49l39.56,94.88v-94.88Z" style="fill:#bdb1fb; stroke:#000; stroke-miterlimit:10; stroke-width:8px;"/><path d="m1659.94,319.09h60.58v34.58h-108.99v-177.59h106.5v34.58h-58.09v36.24h50.07v34.58h-50.07v37.62Z" style="fill:#bdb1fb; stroke:#000; stroke-miterlimit:10; stroke-width:8px;"/></g><g><path d="m277.63,630.87l-6.92-33.2h-53.26l-7.26,33.2h-59.49l57.07-222.04h73.67l57.07,222.04h-60.87Zm-50.84-76.09h34.59l-16.95-79.89-17.64,79.89Z" style="fill:#ec008c; stroke:#000; stroke-miterlimit:10; stroke-width:8px;"/><path d="m437.42,580.03v-31.47c0-5.07-2.89-7.61-8.65-7.61h-33.2c-17.07,0-29.11-3.74-36.14-11.24-7.04-7.49-10.55-18.27-10.55-32.34v-45.65c0-28.59,16.83-42.89,50.49-42.89h47.38c33.66,0,50.49,14.3,50.49,42.89v26.63h-60.52v-18.68c0-5.07-2.89-7.61-8.65-7.61h-10.03c-5.77,0-8.65,2.54-8.65,7.61v32.86c0,5.07,2.88,7.61,8.65,7.61h32.51c17.06,0,29.22,3.58,36.49,10.72,7.26,7.15,10.89,17.64,10.89,31.47v45.65c0,28.59-16.83,42.89-50.49,42.89h-47.04c-33.89,0-50.84-14.29-50.84-42.89v-26.63h60.52v18.68c0,5.07,2.88,7.61,8.65,7.61h10.03c5.76,0,8.65-2.53,8.65-7.61Z" style="fill:#ec008c; stroke:#000; stroke-miterlimit:10; stroke-width:8px;"/><path d="m607.23,580.03v-31.47c0-5.07-2.89-7.61-8.65-7.61h-33.2c-17.07,0-29.11-3.74-36.14-11.24-7.04-7.49-10.55-18.27-10.55-32.34v-45.65c0-28.59,16.83-42.89,50.49-42.89h47.38c33.66,0,50.49,14.3,50.49,42.89v26.63h-60.52v-18.68c0-5.07-2.89-7.61-8.65-7.61h-10.03c-5.77,0-8.65,2.54-8.65,7.61v32.86c0,5.07,2.88,7.61,8.65,7.61h32.51c17.06,0,29.22,3.58,36.49,10.72,7.26,7.15,10.89,17.64,10.89,31.47v45.65c0,28.59-16.83,42.89-50.49,42.89h-47.04c-33.89,0-50.84-14.29-50.84-42.89v-26.63h60.52v18.68c0,5.07,2.88,7.61,8.65,7.61h10.03c5.76,0,8.65-2.53,8.65-7.61Z" style="fill:#ec008c; stroke:#000; stroke-miterlimit:10; stroke-width:8px;"/><path d="m752.49,587.63h75.74v43.23h-136.27v-222.04h133.15v43.23h-72.63v45.31h62.6v43.23h-62.6v47.04Z" style="fill:#ec008c; stroke:#000; stroke-miterlimit:10; stroke-width:8px;"/><path d="m901.2,630.87h-53.95v-222.04h66.06l35.97,118.63,35.97-118.63h66.06v222.04h-53.61v-141.11l-27.67,93.03h-41.5l-27.32-92.34v140.42Z" style="fill:#ec008c; stroke:#000; stroke-miterlimit:10; stroke-width:8px;"/><path d="m1078.97,408.83h101.68c33.89,0,50.84,14.3,50.84,42.89v28.36c0,20.06-5.53,33.09-16.6,39.08,6.45,2.77,10.83,6.98,13.14,12.62,2.3,5.65,3.46,13.32,3.46,23v33.2c0,28.59-16.95,42.89-50.84,42.89h-101.68v-222.04Zm93.03,83.35v-35.97c0-5.07-2.88-7.61-8.65-7.61h-24.9v51.19h24.9c5.76,0,8.65-2.53,8.65-7.61Zm0,91.31v-36.32c0-5.07-2.88-7.61-8.65-7.61h-24.9v51.53h24.9c5.76,0,8.65-2.53,8.65-7.61Z" style="fill:#ec008c; stroke:#000; stroke-miterlimit:10; stroke-width:8px;"/><path d="m1317.95,587.63h68.83v43.23h-129.35v-222.04h60.52v178.81Z" style="fill:#ec008c; stroke:#000; stroke-miterlimit:10; stroke-width:8px;"/><path d="m1461.13,587.63h75.74v43.23h-136.27v-222.04h133.15v43.23h-72.63v45.31h62.6v43.23h-62.6v47.04Z" style="fill:#ec008c; stroke:#000; stroke-miterlimit:10; stroke-width:8px;"/><path d="m1616.41,552.01v78.86h-60.52v-222.04h102.72c33.89,0,50.84,14.3,50.84,42.89v57.41c0,21.91-9.92,35.4-29.74,40.47l40.81,81.28h-65.02l-35.28-78.86h-3.8Zm23.86-99.95h-23.86v58.79h23.86c5.76,0,8.65-2.53,8.65-7.61v-43.58c0-5.07-2.88-7.61-8.65-7.61Z" style="fill:#ec008c; stroke:#000; stroke-miterlimit:10; stroke-width:8px;"/></g><polygon points="236.76 426.95 181.53 428.07 178.3 483.22 142.98 440.73 97.85 472.59 109.05 418.49 56 403.07 105.28 378.09 84.26 327 134.51 349.96 161.36 301.67 174.74 355.27 229.22 346.15 195.66 390.04 236.76 426.95" style="fill:#fde25d; stroke:#000; stroke-miterlimit:10; stroke-width:8px;"/><polygon points="1865.23 399.49 1803.75 417.63 1816.98 480.34 1764.48 443.58 1723.7 493.03 1719.7 429.06 1655.61 428.01 1703.14 385 1664 334.24 1727.26 344.58 1742.54 282.33 1773.9 338.23 1832.09 311.37 1807.94 370.74 1865.23 399.49" style="fill:#fde25d; stroke:#000; stroke-miterlimit:10; stroke-width:8px;"/><circle cx="124.91" cy="203.73" r="25.8" style="fill:#fff; stroke:#000; stroke-miterlimit:10; stroke-width:8px;"/><line x1="106.66" y1="221.97" x2="143.15" y2="185.48" style="fill:#fff; stroke:#000; stroke-miterlimit:10; stroke-width:8px;"/><line x1="106.66" y1="185.48" x2="143.15" y2="221.97" style="fill:#fff; stroke:#000; stroke-miterlimit:10; stroke-width:8px;"/><circle cx="124.91" cy="596.2" r="25.8" style="fill:#fff; stroke:#000; stroke-miterlimit:10; stroke-width:8px;"/><line x1="106.66" y1="614.44" x2="143.15" y2="577.96" style="fill:#fff; stroke:#000; stroke-miterlimit:10; stroke-width:8px;"/><line x1="106.66" y1="577.96" x2="143.15" y2="614.44" style="fill:#fff; stroke:#000; stroke-miterlimit:10; stroke-width:8px;"/><circle cx="1766.79" cy="203.73" r="25.8" style="fill:#fff; stroke:#000; stroke-miterlimit:10; stroke-width:8px;"/><line x1="1748.55" y1="221.97" x2="1785.03" y2="185.48" style="fill:#fff; stroke:#000; stroke-miterlimit:10; stroke-width:8px;"/><line x1="1748.55" y1="185.48" x2="1785.03" y2="221.97" style="fill:#fff; stroke:#000; stroke-miterlimit:10; stroke-width:8px;"/><circle cx="1766.79" cy="596.2" r="25.8" style="fill:#fff; stroke:#000; stroke-miterlimit:10; stroke-width:8px;"/><line x1="1748.55" y1="614.44" x2="1785.03" y2="577.96" style="fill:#fff; stroke:#000; stroke-miterlimit:10; stroke-width:8px;"/><line x1="1748.55" y1="577.96" x2="1785.03" y2="614.44" style="fill:#fff; stroke:#000; stroke-miterlimit:10; stroke-width:8px;"/></g></svg>