<?xml version="1.0" encoding="UTF-8"?><svg id="Layer_1" xmlns="http://www.w3.org/2000/svg" viewBox="0 0 31.43 32"><path d="m18.96,32c-1.38,0-2.66-.68-3.43-1.82l-1.88-2.78-2.91,1.66c-.62.35-1.33.54-2.05.54-1.31,0-2.56-.63-3.34-1.69-.78-1.06-1.01-2.44-.62-3.69l1-3.2-3.11-1.24C1.01,19.14,0,17.63,0,15.91c0-1.71,1.05-3.22,2.64-3.84l3.12-1.22-.97-3.21c-.38-1.25-.14-2.62.64-3.67.78-1.05,2.02-1.67,3.33-1.67.73,0,1.45.19,2.08.56l2.9,1.68,1.91-2.76c.77-1.12,2.05-1.79,3.41-1.79,2.07,0,3.8,1.49,4.1,3.54l.49,3.31,3.34-.23c.09,0,.19,0,.28,0,1.65,0,3.14.98,3.8,2.49.66,1.51.36,3.27-.77,4.48l-2.29,2.45,2.26,2.47c1.11,1.21,1.4,2.97.74,4.47-.66,1.5-2.15,2.48-3.79,2.48-.1,0-.22,0-.32-.01l-3.34-.26-.52,3.31c-.32,2.03-2.04,3.5-4.1,3.5h0Z" style="fill:#fff;"/><path d="m19.2,4.13l1.02,6.86c.01.07.07.12.14.12l6.92-.47c.12,0,.19.14.11.23l-4.73,5.07c-.05.05-.05.13,0,.18l4.68,5.11c.08.09.01.24-.11.23l-6.91-.54c-.07,0-.13.04-.14.11l-1.08,6.85c-.02.12-.18.16-.25.05l-3.89-5.74c-.04-.06-.12-.08-.18-.04l-6.03,3.43c-.11.06-.23-.04-.2-.16l2.06-6.62c.02-.07-.01-.14-.08-.17l-6.44-2.58c-.11-.05-.11-.21,0-.25l6.46-2.52c.07-.03.1-.1.08-.17l-2-6.64c-.04-.12.09-.22.2-.16l6,3.48c.06.04.14.02.18-.04l3.94-5.7c.07-.1.23-.06.25.06Z" style="stroke:#fff; stroke-miterlimit:10; stroke-width:.18px;"/><path d="m19.2,4.13l1.02,6.86c.01.07.07.12.14.12l6.92-.47c.12,0,.19.14.11.23l-4.73,5.07c-.05.05-.05.13,0,.18l4.68,5.11c.08.09.01.24-.11.23l-6.91-.54c-.07,0-.13.04-.14.11l-1.08,6.85c-.02.12-.18.16-.25.05l-3.89-5.74c-.04-.06-.12-.08-.18-.04l-6.03,3.43c-.11.06-.23-.04-.2-.16l2.06-6.62c.02-.07-.01-.14-.08-.17l-6.44-2.58c-.11-.05-.11-.21,0-.25l6.46-2.52c.07-.03.1-.1.08-.17l-2-6.64c-.04-.12.09-.22.2-.16l6,3.48c.06.04.14.02.18-.04l3.94-5.7c.07-.1.23-.06.25.06Z" style="fill:#fff;"/><path d="m19.2,4.13l1.02,6.86c.01.07.07.12.14.12l6.92-.47c.12,0,.19.14.11.23l-4.73,5.07c-.05.05-.05.13,0,.18l4.68,5.11c.08.09.01.24-.11.23l-6.91-.54c-.07,0-.13.04-.14.11l-1.08,6.85c-.02.12-.18.16-.25.05l-3.89-5.74c-.04-.06-.12-.08-.18-.04l-6.03,3.43c-.11.06-.23-.04-.2-.16l2.06-6.62c.02-.07-.01-.14-.08-.17l-6.44-2.58c-.11-.05-.11-.21,0-.25l6.46-2.52c.07-.03.1-.1.08-.17l-2-6.64c-.04-.12.09-.22.2-.16l6,3.48c.06.04.14.02.18-.04l3.94-5.7c.07-.1.23-.06.25.06Z" style="fill:#ec008c; stroke:#000; stroke-miterlimit:10;"/><path d="m17.41,12.28l.54,2.4s.03.06.06.07l2.28.91c.08.03.09.14.01.19l-2.12,1.26s-.05.05-.05.08l-.16,2.46c0,.09-.11.13-.17.07l-1.85-1.62s-.06-.03-.09-.02l-2.39.6c-.08.02-.15-.06-.12-.14l.97-2.26s.01-.07,0-.1l-1.31-2.08c-.05-.07.01-.17.1-.16l2.45.23s.07-.01.09-.04l1.58-1.89c.06-.07.16-.04.18.04Z" style="fill:#ec008c; stroke:#000; stroke-miterlimit:10;"/></svg>