<?xml version="1.0" encoding="UTF-8"?><svg id="Layer_1" xmlns="http://www.w3.org/2000/svg" viewBox="0 0 96 83.67"><path d="m15.28,83.67c-8.43,0-15.28-6.85-15.28-15.28V15.28C0,6.85,6.85,0,15.28,0h51.86c2.52,0,4.85.81,6.74,2.19l16.41,9.47c3.54,2.04,5.71,5.81,5.71,9.9s-2.18,7.85-5.71,9.9l-.42.24.42.24c3.54,2.04,5.71,5.81,5.71,9.9s-2.18,7.85-5.71,9.9l-.42.24.42.24c3.54,2.04,5.71,5.81,5.71,9.9s-2.18,7.85-5.71,9.9l-16.41,9.47c-1.89,1.38-4.22,2.19-6.73,2.19H15.28Z" style="fill:#fff;"/><path d="m15.28,11.43h51.86v60.82H15.28c-2.13,0-3.85-1.73-3.85-3.85V15.28c0-2.13,1.73-3.85,3.85-3.85Z" style="fill:#aaa; stroke:#000; stroke-linecap:round; stroke-linejoin:round; stroke-width:2.02px;"/><polygon points="84.57 62.11 75.79 67.18 67.02 72.25 67.02 62.11 67.02 51.97 75.79 57.04 84.57 62.11" style="fill:#8b5e3c; stroke:#000; stroke-linecap:round; stroke-linejoin:round; stroke-width:2.02px;"/><polygon points="84.57 41.84 75.79 46.91 67.02 51.97 67.02 41.84 67.02 31.7 75.79 36.77 84.57 41.84" style="fill:#8b5e3c; stroke:#000; stroke-linecap:round; stroke-linejoin:round; stroke-width:2.02px;"/><polygon points="84.57 21.56 75.79 26.63 67.02 31.7 67.02 21.56 67.02 11.43 75.79 16.5 84.57 21.56" style="fill:#8b5e3c; stroke:#000; stroke-linecap:round; stroke-linejoin:round; stroke-width:2.02px;"/></svg>