<?xml version="1.0" encoding="UTF-8"?><svg id="Layer_1" xmlns="http://www.w3.org/2000/svg" viewBox="0 0 91.04 96"><path d="m25.03,96c-1.44,0-2.89-.16-4.29-.49-1.9-.44-3.72-1.16-5.4-2.15-1.08-.63-2.12-1.31-3.11-2.02-.48-.34-.94-.69-1.38-1.03-.48-.37-.95-.77-1.41-1.17-1.97-1.71-3.65-3.57-5.02-5.53-.47-.67-.91-1.37-1.31-2.08-.21-.37-.41-.75-.6-1.13C.94,77.32.11,74.05,0,70.7c0-.05,0-.1,0-.14-.02-.95.02-1.93.12-2.89.01-.13.03-.25.04-.38.1-.82.25-1.69.45-2.55.14-.6.31-1.2.49-1.79.11-.73.27-1.68.49-2.81.04-.21.08-.43.13-.65.83-4.04,2.46-10.24,5.53-16.8.46-.98.91-1.89,1.37-2.77.8-1.53,1.67-3.03,2.57-4.45.24-.38.48-.74.72-1.11.87-1.31,1.81-2.59,2.8-3.83.5-.62.96-1.18,1.4-1.7.33-.38.65-.74.97-1.09.44-.49.94-1.01,1.51-1.58.59-.59,1.1-1.08,1.61-1.55,1.03-.95,2.13-1.86,3.27-2.73.55-.42,1.06-.79,1.54-1.13,1.78-1.25,3.64-2.37,5.56-3.34.49-.25.99-.49,1.5-.73,3.65-1.7,7.58-2.93,11.67-3.67.44-.08.88-.13,1.33-.17l1.15-.69c.24-.14.48-.28.73-.4,1.51-2.13,3.65-3.72,6.09-4.55,1.47-3.18,4.26-5.66,7.76-6.69,1.15-.34,2.32-.5,3.48-.5,2.36,0,4.68.68,6.66,1.95.97-.24,1.96-.36,2.95-.36,2.49,0,4.98.75,7.11,2.25,2.98,2.09,4.82,5.34,5.19,8.83,2.78,2.14,4.57,5.42,4.79,9.05s-1.17,7.1-3.67,9.56c.06,3.51-1.38,6.95-4.09,9.39-.55.5-1.14.94-1.75,1.32-.35,1.12-.85,2.18-1.51,3.17l-.13.19c.03.29.06.57.09.85.1,1.08.06,2.18-.12,3.25-.25,1.46-1.82,9.2-8.3,18.38-.43.61-.88,1.23-1.34,1.82-1.21,1.58-2.53,3.14-3.92,4.63-.29.31-.59.62-.89.93-.61.63-1.25,1.25-1.89,1.86-.32.31-.66.62-1,.93-2.11,1.92-4.4,3.74-6.8,5.42-.42.29-.84.58-1.27.87-1.31.87-2.67,1.73-4.06,2.53-.47.27-.95.54-1.43.81-5.6,3.09-11.86,5.64-18.61,7.59-1.25.36-2.54.59-3.84.69-.49.04-.98.06-1.47.06Z" style="fill:#fff;"/><path d="m67.41,31.24l1.62-2.71,5.94,2.95-2.32-6.21,6.01-2.8-6.3-2.06,1.56-6.45h0s-5.54,3.65-5.54,3.65l-4.07-5.24-.6,6.6-6.63-.08,4.79,4.59-1,1.22c-.26-.13-.52-.26-.77-.38-.03-.01-.06-.02-.09-.04-.23-.1-.45-.2-.68-.29-.04-.02-.09-.03-.13-.05-.21-.08-.42-.16-.62-.23-.05-.02-.1-.03-.15-.05-.2-.07-.39-.13-.59-.19-.05-.02-.1-.03-.15-.04-.19-.05-.37-.1-.55-.15-.05-.01-.1-.03-.15-.04-.18-.04-.35-.08-.52-.12-.05-.01-.1-.02-.15-.03-.17-.03-.33-.06-.49-.09-.05,0-.1-.02-.14-.02-.16-.03-.31-.05-.46-.07-.04,0-.09-.01-.13-.02-.15-.02-.29-.04-.42-.05-.04,0-.08,0-.12-.01-.13-.01-.26-.02-.38-.03-.04,0-.07,0-.11,0-.12,0-.23-.02-.34-.02-.03,0-.06,0-.09,0-.1,0-.2,0-.29-.01-.02,0-.05,0-.07,0-.09,0-.17,0-.24,0-.02,0-.04,0-.05,0-.07,0-.13,0-.19,0,0,0-.02,0-.03,0-.06,0-.1,0-.13,0,0,0,0,0,0,0-.03,0-.05,0-.05,0l-4.64,2.77s-.04,0-.06-.01c-.09-.02-.17-.04-.25-.06-.08-.02-.16-.03-.23-.05-.08-.02-.16-.03-.23-.05-.07-.01-.13-.02-.19-.04-.12-.02-.23-.04-.32-.06-.05,0-.11-.02-.16-.03-.06,0-.1-.02-.15-.02-.04,0-.08-.01-.11-.02-.04,0-.07,0-.1-.01-.03,0-.06,0-.08-.01-.02,0-.04,0-.05,0-.03,0-.04,0-.04,0h0c-3.18.57-6.05,1.51-8.65,2.72-.37.17-.74.35-1.1.53-1.44.73-2.79,1.56-4.06,2.45-.39.27-.76.55-1.14.84-.85.65-1.66,1.32-2.43,2.03-.42.38-.82.77-1.21,1.16-.39.39-.78.79-1.15,1.2-.25.27-.49.55-.73.82-.37.43-.73.87-1.08,1.31-.78.98-1.5,1.97-2.18,2.98-.2.29-.39.59-.58.88-.75,1.18-1.44,2.38-2.07,3.57-.4.76-.77,1.51-1.12,2.26-2.56,5.47-3.93,10.68-4.62,14.05-.04.18-.07.36-.11.53-.4,2.06-.53,3.3-.53,3.3-.23.59-.41,1.17-.54,1.74-.1.42-.17.83-.22,1.24,0,.05-.01.11-.02.16-.05.47-.07.94-.06,1.39,0,0,0,0,0,0,.05,1.64.49,3.15,1.17,4.52.1.19.2.39.31.58.21.38.45.74.7,1.1.87,1.24,1.92,2.34,3,3.28.31.27.62.53.93.77.31.25.62.48.93.7.77.55,1.51,1.02,2.18,1.41.6.35,1.25.61,1.91.76.67.15,1.35.21,2.04.15.46-.04.91-.12,1.36-.25,6.25-1.81,11.56-4.05,16.06-6.54.41-.23.81-.45,1.21-.68,1.19-.69,2.32-1.39,3.39-2.11.36-.24.71-.48,1.05-.72,2.07-1.45,3.92-2.94,5.58-4.44.28-.25.55-.5.81-.75.53-.5,1.04-1,1.52-1.5.24-.25.48-.5.72-.75,1.17-1.25,2.21-2.49,3.13-3.7.37-.49.72-.97,1.06-1.44,5.19-7.36,6.21-13.34,6.21-13.34-.05-.55-.12-1.08-.2-1.61-.02-.16-.05-.31-.07-.46-.07-.41-.15-.82-.23-1.22-.03-.16-.07-.31-.1-.47-.07-.32-.15-.64-.23-.95l2.89-4.35c-.07-.45-.15-.89-.24-1.31-.03-.13-.06-.26-.09-.39-.07-.31-.14-.6-.22-.9-.03-.12-.06-.25-.1-.38-.1-.34-.2-.67-.3-.99-.07-.21-.14-.4-.21-.6-.04-.12-.09-.24-.14-.36-.3-.77-.63-1.48-.98-2.14Z"/><polygon points="78.67 22.47 72.65 25.27 74.98 31.48 69.04 28.53 65.63 34.22 64.23 27.74 57.66 28.62 61.86 23.48 57.07 18.89 63.7 18.98 64.3 12.37 68.38 17.61 73.92 13.96 72.36 20.41 78.67 22.47" style="fill:#fde25d; stroke:#000; stroke-miterlimit:10; stroke-width:2.18px;"/><path d="m46.9,26.16l5.69-3.4s14.54-.9,17.1,15.55l-4.06,6.11s-21.75-9.58-18.73-18.26Z" style="fill:#4b7fec; stroke:#000; stroke-miterlimit:10; stroke-width:2.18px;"/><path d="m13.21,65.81s3.7-35.4,32.76-40.64c0,0,19.78,2.13,21.68,22.2,0,0-4.36,25.49-40.74,35.99-1.79.52-3.71.27-5.31-.67-4.25-2.5-11.74-8.31-8.38-16.88Z" style="fill:#4b7fec; stroke:#000; stroke-miterlimit:10; stroke-width:2.18px;"/><path d="m21.25,57.86l2.12-3.67c3.75-6.48,8.32-12.45,13.61-17.75l2.77-2.78,4.31,2.9-18.88,24.65-3.94-3.35Z" style="fill:#8dc63f; stroke:#000; stroke-miterlimit:10; stroke-width:2.18px;"/><circle cx="61.11" cy="50.34" r="2.71" style="fill:#ed1c24; stroke:#000; stroke-miterlimit:10; stroke-width:2.18px;"/><circle cx="57.02" cy="57.84" r="2.71" style="fill:#ed1c24; stroke:#000; stroke-miterlimit:10; stroke-width:2.18px;"/><line x1="53.13" y1="27.24" x2="57.85" y2="23.49" style="fill:#4b7fec; stroke:#000; stroke-miterlimit:10; stroke-width:2.18px;"/><line x1="60.39" y1="31.92" x2="65.11" y2="27.96" style="fill:#4b7fec; stroke:#000; stroke-miterlimit:10; stroke-width:2.18px;"/><line x1="64.94" y1="37.87" x2="68.66" y2="34.07" style="fill:#4b7fec; stroke:#000; stroke-miterlimit:10; stroke-width:2.18px;"/><path d="m78.67,22.47l-6.3-2.06,1.56-6.45-5.54,3.65-4.07-5.24-.6,6.6-6.63-.08,4.79,4.59-1,1.22c-4.21-2.19-8.27-1.94-8.27-1.94l-4.64,2.77c-1.23-.28-1.99-.36-1.99-.36-29.06,5.24-32.76,40.64-32.76,40.64-3.35,8.57,4.13,14.38,8.38,16.88,1.6.94,3.52,1.18,5.31.67,36.38-10.5,40.74-35.99,40.74-35.99-.16-1.69-.45-3.26-.84-4.7l2.89-4.35c-.44-2.85-1.25-5.17-2.28-7.08l1.62-2.71,5.94,2.95-2.32-6.21,6.01-2.8Z" style="fill:none; stroke:#000; stroke-miterlimit:10; stroke-width:2.18px;"/></svg>