<?xml version="1.0" encoding="UTF-8"?><svg id="Layer_1" xmlns="http://www.w3.org/2000/svg" viewBox="0 0 82.58 96"><path d="m33.44,96c-.93,0-1.86-.07-2.78-.22-13.64-2.13-22.41-10.48-26.42-15.27-4.92-5.88-5.64-14.28-1.77-20.92l3.08-5.29c-.63-1.59-1.22-3.36-1.72-5.26-1.99-7.68-1.11-15.85,2.47-23,2.92-5.81,7.47-10.65,13.04-13.92C27.06,1.66,36.66,0,41.98,0c14.29,0,25.72,10.93,28.23,13.52,12.09,11.98,13.2,23.6,12,31.25-2.78,17.6-19.65,29.32-28.46,34.32l-4.56,7.82c-3.26,5.6-9.3,9.08-15.74,9.08h0Z" style="fill:#fff;"/><path d="m61.29,22.33s-20.7-21.68-33.31-.54h0c-9.34,4.05-14.56,14.27-12.01,24.13,1.07,4.14,2.85,7.44,3.76,8.96l-6.42,11.03c-1.22,2.09-1,4.71.55,6.56,3.13,3.74,9.33,9.47,18.74,10.93,2.31.36,4.59-.78,5.77-2.79l6.34-10.88c3.57-1.79,42.32-22.07,16.59-47.4Z"/><path d="m20.45,53.64l-7.14,12.26c-1.22,2.09-1,4.71.55,6.56,3.13,3.74,9.33,9.47,18.74,10.93,2.31.36,4.59-.78,5.77-2.79l8.65-14.85s-16.29-17.9-26.57-12.11Z" style="fill:#a393f5; stroke:#000; stroke-miterlimit:10; stroke-width:2.21px;"/><path d="m27.98,21.79c12.62-21.14,33.31.54,33.31.54,26.95,26.53-16.85,47.53-16.85,47.53-13.71-.51-24.13-14.06-24.13-14.06,0,0-2.85-4.15-4.34-9.89-2.55-9.85,2.67-20.07,12.01-24.12h0Z" style="fill:#bdb1fb; stroke:#000; stroke-miterlimit:10; stroke-width:2.21px;"/><path d="m26.25,36.84s7.61,10.66,14.39,3.52c6.77-7.14,1.16-15.89-12.65-18.58" style="fill:none; stroke:#000; stroke-miterlimit:10; stroke-width:2.21px;"/><path d="m62.54,45.22s-6.36,13.79-21.9-4.86" style="fill:none; stroke:#000; stroke-miterlimit:10; stroke-width:2.21px;"/><line x1="22.76" y1="72.41" x2="29.67" y2="69.76" style="fill:none; stroke:#000; stroke-miterlimit:10; stroke-width:2.21px;"/><line x1="24.89" y1="67.63" x2="27.54" y2="74.54" style="fill:none; stroke:#000; stroke-miterlimit:10; stroke-width:2.21px;"/></svg>