<?xml version="1.0" encoding="UTF-8"?><svg id="Layer_1" xmlns="http://www.w3.org/2000/svg" viewBox="0 0 92.79 94.04"><path d="m14.67,94.04c-2.94,0-5.87-1.17-8.04-3.47l-3.63-3.86C.94,84.51-.14,81.57.02,78.56c.15-2.87,1.41-5.56,3.51-7.51v-.65c0-6.51,5.16-11.84,11.61-12.1.77-1.63,1.94-3.06,3.41-4.15l2.61-1.93c1.97-1.45,4.27-2.16,6.56-2.16.06,0,.12,0,.18,0C46.24,32.13,67.08,11.21,72.49,4.33c2.18-2.76,5.42-4.33,8.92-4.33,3.73,0,7.23,1.83,9.36,4.9,2.12,3.06,2.6,6.98,1.29,10.47-3.36,8.94-8.73,17.21-15.53,23.91l-30.99,30.54c-.21,2.52-1.28,4.98-3.2,6.9l-2.61,2.61c-1.36,1.36-3.03,2.32-4.84,2.83-1.78,4.44-6.12,7.58-11.17,7.61l-1.86,1.6c-2.08,1.78-4.64,2.66-7.19,2.66Z" style="fill:#fff;"/><path d="m81.16,11.17c-8.05,10.22-42.55,43.89-51.3,52.38l-2.14-2.46-2.61,1.93,1.89,2.37-4.57,3.93h-6.8c-.59,0-1.07.48-1.07,1.07v5.7l-3.53,3.04,3.63,3.86,4.96-4.26h4.02c.59,0,1.07-.48,1.07-1.07v-3.29l5.62-4.82,1.59,1.98,2.61-2.61-1.76-2.02,36-35.47c5.71-5.63,10.13-12.43,12.95-19.93h0c.13-.35-.33-.63-.57-.33Z"/><path d="m27.84,65.52S71.92,22.9,81.16,11.17c.23-.3.7-.03.57.33h0c-2.82,7.51-7.24,14.31-12.95,19.93l-37.65,37.1s-6.41,3.35-3.29-3.01Z" style="fill:#e50e0e; stroke:#000; stroke-miterlimit:10; stroke-width:1.95px;"/><polygon points="11.04 79.14 27.39 65.06 30.68 69.26 14.67 83 11.04 79.14" style="fill:#5050ff; stroke:#000; stroke-miterlimit:10; stroke-width:1.95px;"/><rect x="14.57" y="69.32" width="10.16" height="9.42" rx="1.07" ry="1.07" style="fill:#7e6b8e; stroke:#000; stroke-miterlimit:10; stroke-width:1.95px;"/><polygon points="25.12 63.02 31.93 71.53 34.54 68.92 27.73 61.09 25.12 63.02" style="fill:#5050ff; stroke:#000; stroke-miterlimit:10; stroke-width:1.95px;"/></svg>