<?xml version="1.0" encoding="UTF-8"?><svg id="Layer_1" xmlns="http://www.w3.org/2000/svg" viewBox="0 0 88.66 96"><path d="m66.38,96c-5.03,0-9.36-3.58-10.32-8.52l-5.34-27.28-6.39-6.65-6.39,6.65s-5.36,27.35-5.36,27.38c-.99,4.88-5.32,8.42-10.3,8.42-2.81,0-5.54-1.14-7.51-3.15-1.76-1.79-2.82-4.19-2.98-6.68-.42.05-.85.08-1.29.08-2.87,0-5.65-1.19-7.62-3.27-1.98-2.08-3.02-4.91-2.87-7.78l1.52-27.77c.2-3.58,2.21-6.82,5.35-8.57l21.29-11.9c.46-1.31,1.08-2.57,1.85-3.73v-12.76c0-5.78,4.69-10.47,10.47-10.47h7.68c5.78,0,10.47,4.69,10.47,10.47v12.76c.76,1.16,1.38,2.42,1.85,3.73l21.29,11.9c3.13,1.75,5.15,4.98,5.35,8.57l1.52,27.74c.16,2.86-.87,5.69-2.84,7.77-1.98,2.1-4.77,3.31-7.66,3.31h0c-.43,0-.86-.03-1.28-.08-.16,2.52-1.24,4.92-3.02,6.72-1.96,1.98-4.68,3.11-7.47,3.11Z" style="fill:#fff;"/><path d="m76.67,48l-25.76-14.4c.05-.32.08-.64.08-.97,0-2.25-1.11-4.23-2.82-5.43V10.47h-7.68v16.72c-1.7,1.21-2.82,3.19-2.82,5.43,0,.33.03.65.08.97l-25.76,14.4-1.52,27.74s.06.05.07.01l7.47-25.06,19.54-11.78-14.8,15.49-.51,31.09s.06.05.07,0l5.94-30.33,15.31-15.93c.25.03.51.05.77.05s.51-.02.77-.05l15.31,15.93,5.94,30.33s.07.04.07,0l-.51-31.09-14.8-15.49,19.54,11.78,7.47,25.06s.07.03.07-.01l-1.52-27.74Z"/><rect x="40.49" y="10.47" width="7.68" height="18.96" style="fill:#4f4f4f; stroke:#000; stroke-miterlimit:10; stroke-width:1.85px;"/><g><path d="m42.22,31.1l-30.23,16.9-1.52,27.74s.06.05.07.01l7.47-25.06,26.77-16.14-2.56-3.45Z" style="fill:#4f4f4f; stroke:#000; stroke-miterlimit:10; stroke-width:1.85px;"/><path d="m39.14,37.24l-16.39,17.16-.51,31.09s.06.05.07,0l5.94-30.33,18.96-19.72-8.07,1.79Z" style="fill:#4f4f4f; stroke:#000; stroke-miterlimit:10; stroke-width:1.85px;"/><path d="m46.44,31.1l30.23,16.9,1.52,27.74s-.06.05-.07.01l-7.47-25.06-26.77-16.14,2.56-3.45Z" style="fill:#4f4f4f; stroke:#000; stroke-miterlimit:10; stroke-width:1.85px;"/><path d="m49.52,37.24l16.39,17.16.51,31.09s-.06.05-.07,0l-5.94-30.33-18.96-19.72,8.07,1.79Z" style="fill:#4f4f4f; stroke:#000; stroke-miterlimit:10; stroke-width:1.85px;"/></g><circle cx="44.33" cy="32.63" r="6.66" style="fill:#4f4f4f; stroke:#000; stroke-miterlimit:10; stroke-width:1.85px;"/></svg>