<?xml version="1.0" encoding="UTF-8"?><svg id="Layer_1" xmlns="http://www.w3.org/2000/svg" viewBox="0 0 96 92.3"><g><path d="m12.6,92.3c-6.96,0-12.6-5.64-12.6-12.6v-16.19c0-6.96,5.64-12.6,12.6-12.6h2.44V12.6C15.04,5.64,20.69,0,27.65,0h16.64c6.96,0,12.6,5.64,12.6,12.6v67.09c0,6.96-5.64,12.6-12.6,12.6H12.6Z" style="fill:#fff;"/><path d="m51.71,92.3c-6.96,0-12.6-5.64-12.6-12.6V12.6c0-6.96,5.64-12.6,12.6-12.6h16.64c6.96,0,12.6,5.64,12.6,12.6v38.3h2.44c6.96,0,12.6,5.64,12.6,12.6v16.19c0,6.96-5.64,12.6-12.6,12.6h-31.68Z" style="fill:#fff;"/></g><polygon points="44.29 12.6 44.29 79.7 12.6 79.7 12.6 63.51 27.65 63.51 27.65 12.6 44.29 12.6" style="fill:#aaa; stroke:#000; stroke-linecap:round; stroke-linejoin:round; stroke-width:2.22px;"/><polygon points="51.71 12.6 51.71 79.7 83.4 79.7 83.4 63.51 68.35 63.51 68.35 12.6 51.71 12.6" style="fill:#aaa; stroke:#000; stroke-linecap:round; stroke-linejoin:round; stroke-width:2.22px;"/></svg>