<?xml version="1.0" encoding="UTF-8"?><svg id="Layer_1" xmlns="http://www.w3.org/2000/svg" viewBox="0 0 96 94.52"><g><path d="m47.88,94.52c-5.24,0-9.78-3.22-10.89-7.73l-.9-3.64c-.64.12-1.29.18-1.96.2-.1,0-.2,0-.3,0-4.85,0-9.15-2.76-10.63-6.86l-1.9-5.26c-1.09.31-2.23.47-3.4.47-.81,0-1.63-.08-2.44-.24-4.71-.93-8.21-4.43-8.66-8.67-.69-6.41-.22-12.89.54-18.22-1.42-.93-2.59-2.16-3.38-3.61-1.45-2.64-1.48-5.7-.1-8.36L17.77,5.74c1.81-3.5,5.78-5.74,10.14-5.74h39.93c4.37,0,8.33,2.24,10.14,5.74l13.92,26.86c1.38,2.66,1.34,5.73-.1,8.36-.79,1.44-1.96,2.67-3.38,3.61.76,5.34,1.23,11.81.54,18.22-.45,4.24-3.95,7.74-8.66,8.67-.81.16-1.63.24-2.44.24-1.16,0-2.31-.16-3.4-.47l-1.9,5.26c-1.47,4.09-5.78,6.86-10.63,6.86-.1,0-.2,0-.3,0-.67-.02-1.33-.08-1.96-.2l-.9,3.64c-1.12,4.51-5.65,7.73-10.89,7.73Z" style="fill:#fff;"/><path d="m81.7,36.7h.06s-13.92-26.87-13.92-26.87H27.91l-13.92,26.86h.06c1.94.44,3.9.82,5.85,1.17-1.16,4.85-3.02,14.61-2.01,24.01l7.64-11.36,8.29,23.01,6.14-20.81,7.92,31.99,7.92-31.99,6.14,20.81,8.29-23.01,7.64,11.36c1.01-9.4-.85-19.16-2.01-24.01,1.96-.35,3.91-.74,5.85-1.16Z"/><path d="m84.83,61.71c-1.85,0-3.71-.41-5.38-1.22-5.74-2.79-11.65-10.12-9.44-21.6,0-.02,0-.04.01-.06.94-4.7,5.6-8.15,11.02-8.15,3.92,0,7.6,1.84,9.6,4.81,1.4,2.08,5.86,9.38,5.32,17.01-.24,3.36-2.41,6.38-5.76,8-1.67.81-3.52,1.21-5.37,1.21Z" style="fill:#fff;"/><path d="m81.06,40.52s-.05-.01-.06.01c-1.67,8.68,3.83,11.35,3.83,11.35.36-5.05-3.32-10.69-3.77-11.36Z"/><path d="m11.18,61.71c-1.85,0-3.7-.4-5.37-1.21C2.46,58.87.28,55.85.05,52.49c-.55-7.73,3.97-15.03,5.37-17.08.02-.03.05-.07.07-.1,2.03-2.9,5.63-4.67,9.5-4.67,5.44,0,10.08,3.46,11,8.17h0c2.25,11.52-3.67,18.88-9.43,21.67-1.68.81-3.53,1.22-5.38,1.22Z" style="fill:#fff;"/><path d="m14.98,40.47c-.27.4-4.17,6.21-3.8,11.41,0,0,5.52-2.68,3.82-11.4,0,0-.01-.01-.02,0Z"/><path d="m76.38,85.14c-1.85,0-3.71-.41-5.38-1.22-5.62-2.73-11.48-9.9-9.53-21.12.86-4.91,5.57-8.46,11.19-8.46,4.08,0,7.86,1.95,9.86,5.08,1.67,2.6,5.5,9.43,4.99,16.51-.24,3.36-2.41,6.38-5.76,8-1.67.81-3.52,1.21-5.37,1.21Z" style="fill:#fff;"/><path d="m72.49,64.29c-1.47,8.41,3.89,11.02,3.89,11.02.33-4.6-2.7-9.69-3.58-11.07-.08-.12-.29-.08-.31.05Z"/><path d="m21.46,85.14c-1.85,0-3.7-.4-5.37-1.21-3.35-1.62-5.52-4.64-5.76-8-.5-7.08,3.33-13.91,5-16.51,2.01-3.13,5.78-5.07,9.85-5.07,5.62,0,10.33,3.55,11.19,8.45,1.96,11.23-3.91,18.4-9.53,21.13-1.68.81-3.53,1.22-5.38,1.22Z" style="fill:#fff;"/><path d="m25.04,64.24c-.88,1.38-3.9,6.47-3.58,11.07,0,0,5.36-2.6,3.89-11.02-.02-.14-.23-.18-.31-.05Z"/></g><path d="m75.03,34.75H20.72s-4.24,13.93-2.83,27.12l7.64-11.36,8.29,23.01,6.14-20.81,7.92,31.99,7.92-31.99,6.14,20.81,8.29-23.01,7.64,11.36c1.41-13.2-2.83-27.12-2.83-27.12Z" style="fill:#ed1c24; stroke:#000; stroke-miterlimit:10; stroke-width:1.85px;"/><path d="m75.03,34.75H20.72s-4.24,13.93-2.83,27.12l7.64-11.36,8.29,23.01,6.14-20.81,7.92,31.99,7.92-31.99,6.14,20.81,8.29-23.01,7.64,11.36c1.41-13.2-2.83-27.12-2.83-27.12Z" style="fill:#2887e5; stroke:#000; stroke-miterlimit:10; stroke-width:1.85px;"/><path d="m69.73,28.51H26.03s-3.41,6.57-2.28,12.79l6.14-5.36,4.64,14,6.96-12.97,6.37,17.46,6.37-17.46,6.96,12.97,4.64-14,6.14,5.36c1.14-6.22-2.28-12.79-2.28-12.79Z" style="fill:#2d1ef4; stroke:#000; stroke-miterlimit:10; stroke-width:1.85px;"/><path d="m67.84,9.83H27.91l-13.92,26.86h.06c22.21,4.87,45.44,4.87,67.65.01h.06s-13.92-26.87-13.92-26.87Z" style="fill:#c47b1a; stroke:#000; stroke-miterlimit:10; stroke-width:1.85px;"/><g><path d="m81.06,40.52c.45.67,4.13,6.31,3.77,11.36,0,0-5.5-2.67-3.83-11.35,0-.03.04-.04.06-.01Z" style="fill:#2887e5; stroke:#000; stroke-miterlimit:10; stroke-width:1.85px;"/><path d="m14.98,40.47c-.27.4-4.17,6.21-3.8,11.41,0,0,5.52-2.68,3.82-11.4,0,0-.01-.01-.02,0Z" style="fill:#2887e5; stroke:#000; stroke-miterlimit:10; stroke-width:1.85px;"/></g><path d="m72.8,64.24c.88,1.38,3.9,6.47,3.58,11.07,0,0-5.36-2.6-3.89-11.02.02-.14.23-.18.31-.05Z" style="fill:#2887e5; stroke:#000; stroke-miterlimit:10; stroke-width:1.85px;"/><path d="m25.04,64.24c-.88,1.38-3.9,6.47-3.58,11.07,0,0,5.36-2.6,3.89-11.02-.02-.14-.23-.18-.31-.05Z" style="fill:#f7941d; stroke:#000; stroke-miterlimit:10; stroke-width:1.85px;"/></svg>