<?xml version="1.0" encoding="UTF-8"?><svg id="Layer_1" xmlns="http://www.w3.org/2000/svg" viewBox="0 0 96 83.75"><path d="m48,83.75c-17.3,0-31.37-14.07-31.37-31.37,0-4.86,1.13-9.6,3.24-13.87l-5.83-5.83C6.11,31.52,0,24.67,0,16.43,0,7.37,7.37,0,16.43,0h63.15c9.06,0,16.43,7.37,16.43,16.43,0,8.54-6.55,15.57-14.88,16.35l-5.23,5.23c2.26,4.39,3.48,9.3,3.48,14.37,0,17.3-14.07,31.37-31.37,31.37Z" style="fill:#fff;"/><path d="m79.57,11.26H16.43c-2.85,0-5.17,2.31-5.17,5.17h0c0,2.85,2.31,5.17,5.17,5.17h2.45l15.76,15.76c-4.14,3.68-6.75,9.05-6.75,15.03,0,11.11,9.01,20.11,20.11,20.11s20.11-9.01,20.11-20.11c0-6.17-2.78-11.68-7.15-15.37l15.42-15.42h3.19c2.85,0,5.17-2.31,5.17-5.17h0c0-2.85-2.31-5.17-5.17-5.17Zm-24.96,22.13c-2.07-.72-4.3-1.12-6.61-1.12-2.52,0-4.93.47-7.16,1.32l-11.99-11.99h37.55l-11.79,11.79Z"/><rect x="12.46" y="26.39" width="39.46" height="7.06" rx="3.31" ry="3.31" transform="translate(30.58 -14) rotate(45)" style="fill:#a8a8a8; stroke:#000; stroke-miterlimit:10; stroke-width:1.99px;"/><rect x="43.34" y="26.39" width="39.46" height="7.06" rx="3.31" ry="3.31" transform="translate(128.83 6.47) rotate(135)" style="fill:#a8a8a8; stroke:#000; stroke-miterlimit:10; stroke-width:1.99px;"/><circle cx="48" cy="52.38" r="20.11" style="fill:#2d2d2d; stroke:#000; stroke-miterlimit:10; stroke-width:1.99px;"/><circle cx="48" cy="52.38" r="9.33" style="fill:#afafaf; stroke:#000; stroke-miterlimit:10; stroke-width:1.99px;"/><line x1="48" y1="43.06" x2="48" y2="61.71" style="fill:#4f4f4f; stroke:#000; stroke-miterlimit:10; stroke-width:1.99px;"/><line x1="57.33" y1="52.38" x2="38.67" y2="52.38" style="fill:#4f4f4f; stroke:#000; stroke-miterlimit:10; stroke-width:1.99px;"/><line x1="54.59" y1="45.79" x2="41.41" y2="58.98" style="fill:#4f4f4f; stroke:#000; stroke-miterlimit:10; stroke-width:1.99px;"/><line x1="54.59" y1="58.98" x2="41.41" y2="45.79" style="fill:#4f4f4f; stroke:#000; stroke-miterlimit:10; stroke-width:1.99px;"/><rect x="11.26" y="11.26" width="73.49" height="10.34" rx="5.17" ry="5.17" style="fill:#3b00d4; stroke:#000; stroke-miterlimit:10; stroke-width:1.99px;"/></svg>