<?xml version="1.0" encoding="UTF-8"?><svg id="Layer_1" xmlns="http://www.w3.org/2000/svg" viewBox="0 0 88.08 96"><path d="m13.13,96c-7.25,0-13.13-5.88-13.13-13.13v-29.97c0-5.35,3.2-9.95,7.79-12v-18.57c0-7.25,5.88-13.13,13.13-13.13h10.23l1.52-2.64C35.02,2.5,39.35,0,44.04,0c4.69,0,9.02,2.5,11.37,6.56l1.52,2.64h10.23c7.25,0,13.13,5.88,13.13,13.13v18.57c4.59,2.04,7.79,6.65,7.79,12v29.97c0,7.25-5.88,13.13-13.13,13.13H13.13Z" style="fill:#fff;"/><g><rect x="20.92" y="22.33" width="46.24" height="41.66" style="fill:#aaa; stroke:#000; stroke-linecap:round; stroke-linejoin:round; stroke-width:2.32px;"/><rect x="13.13" y="52.9" width="61.82" height="29.97" style="fill:#aaa; stroke:#000; stroke-linecap:round; stroke-linejoin:round; stroke-width:2.32px;"/><g><rect x="27.11" y="31.62" width="8.84" height="8.84" style="fill:#fff200; stroke:#000; stroke-linecap:round; stroke-linejoin:round; stroke-width:2.32px;"/><rect x="52.13" y="31.62" width="8.84" height="8.84" style="fill:#fff200; stroke:#000; stroke-linecap:round; stroke-linejoin:round; stroke-width:2.32px;"/></g><line x1="44.04" y1="82.87" x2="44.04" y2="69.53" style="fill:#8b5e3c; stroke:#000; stroke-linecap:round; stroke-linejoin:round; stroke-width:2.32px;"/><polygon points="44.04 13.13 46.7 17.73 49.35 22.33 44.04 22.33 38.73 22.33 41.38 17.73 44.04 13.13" style="fill:#8b5e3c; stroke:#000; stroke-linecap:round; stroke-linejoin:round; stroke-width:2.32px;"/></g></svg>