<?xml version="1.0" encoding="UTF-8"?><svg id="Layer_1" xmlns="http://www.w3.org/2000/svg" viewBox="0 0 96 88.07"><path d="m10.87,88.07c-6,0-10.87-4.86-10.87-10.87v-8.47c0-3.86,2.01-7.25,5.05-9.18v-31.03c-3.03-1.93-5.05-5.32-5.05-9.18v-8.47C0,4.86,4.86,0,10.87,0h74.27c6,0,10.87,4.86,10.87,10.87v8.47c0,3.86-2.01,7.25-5.05,9.18v31.03c3.03,1.93,5.05,5.32,5.05,9.18v8.47c0,6-4.86,10.87-10.87,10.87H10.87Z" style="fill:#fff;"/><polygon points="85.13 19.34 85.13 10.87 10.87 10.87 10.87 19.34 15.91 19.34 15.91 68.73 10.87 68.73 10.87 77.2 85.13 77.2 85.13 68.73 80.09 68.73 80.09 19.34 85.13 19.34"/><g><rect x="15.91" y="19.34" width="64.17" height="49.39" style="fill:#11c9b7; stroke:#000; stroke-miterlimit:10; stroke-width:1.92px;"/><rect x="10.87" y="10.87" width="74.27" height="8.47" style="fill:#fd8f50; stroke:#000; stroke-miterlimit:10; stroke-width:1.92px;"/><rect x="10.87" y="68.73" width="74.27" height="8.47" style="fill:#fd8f50; stroke:#000; stroke-miterlimit:10; stroke-width:1.92px;"/><g><line x1="15.83" y1="16.1" x2="15.83" y2="14.1" style="fill:none; stroke:#000; stroke-miterlimit:10; stroke-width:1.92px;"/><line x1="28.7" y1="16.1" x2="28.7" y2="14.1" style="fill:none; stroke:#000; stroke-miterlimit:10; stroke-width:1.92px;"/><line x1="41.57" y1="16.1" x2="41.57" y2="14.1" style="fill:none; stroke:#000; stroke-miterlimit:10; stroke-width:1.92px;"/><line x1="54.43" y1="16.1" x2="54.43" y2="14.1" style="fill:none; stroke:#000; stroke-miterlimit:10; stroke-width:1.92px;"/><line x1="67.3" y1="16.1" x2="67.3" y2="14.1" style="fill:none; stroke:#000; stroke-miterlimit:10; stroke-width:1.92px;"/><line x1="80.17" y1="16.1" x2="80.17" y2="14.1" style="fill:none; stroke:#000; stroke-miterlimit:10; stroke-width:1.92px;"/></g><g><line x1="15.83" y1="73.97" x2="15.83" y2="71.97" style="fill:none; stroke:#000; stroke-miterlimit:10; stroke-width:1.92px;"/><line x1="28.7" y1="73.97" x2="28.7" y2="71.97" style="fill:none; stroke:#000; stroke-miterlimit:10; stroke-width:1.92px;"/><line x1="41.57" y1="73.97" x2="41.57" y2="71.97" style="fill:none; stroke:#000; stroke-miterlimit:10; stroke-width:1.92px;"/><line x1="54.43" y1="73.97" x2="54.43" y2="71.97" style="fill:none; stroke:#000; stroke-miterlimit:10; stroke-width:1.92px;"/><line x1="67.3" y1="73.97" x2="67.3" y2="71.97" style="fill:none; stroke:#000; stroke-miterlimit:10; stroke-width:1.92px;"/><line x1="80.17" y1="73.97" x2="80.17" y2="71.97" style="fill:none; stroke:#000; stroke-miterlimit:10; stroke-width:1.92px;"/></g><polygon points="22.99 24.67 22.99 51.55 29.76 51.55 29.76 64.15 66.09 64.15 66.09 51.55 72.86 51.55 72.86 24.67 22.99 24.67" style="fill:#29b26a; stroke:#000; stroke-miterlimit:10; stroke-width:1.92px;"/><g><line x1="43.41" y1="50.3" x2="43.41" y2="47.36" style="fill:none; stroke:#000; stroke-miterlimit:10; stroke-width:1.92px;"/><line x1="52.3" y1="50.3" x2="52.3" y2="47.36" style="fill:none; stroke:#000; stroke-miterlimit:10; stroke-width:1.92px;"/></g><rect x="22.99" y="35.42" width="49.88" height="4.96" style="fill:#a7dca8; stroke:#000; stroke-miterlimit:10; stroke-width:1.92px;"/><circle cx="37.89" cy="36.36" r="8.05" style="fill:#647ab4; stroke:#000; stroke-miterlimit:10; stroke-width:1.92px;"/><circle cx="37.89" cy="36.36" r="5.09" style="fill:#a392f8; stroke:#000; stroke-miterlimit:10; stroke-width:1.92px;"/><circle cx="59.33" cy="37.14" r="6.29" style="fill:#647ab4; stroke:#000; stroke-miterlimit:10; stroke-width:1.92px;"/><circle cx="59.33" cy="37.14" r="2.81" style="fill:#a392f8; stroke:#000; stroke-miterlimit:10; stroke-width:1.92px;"/><g><line x1="36.82" y1="64.15" x2="36.82" y2="55.27" style="fill:none; stroke:#000; stroke-miterlimit:10; stroke-width:1.92px;"/><line x1="59.18" y1="64.15" x2="59.18" y2="55.27" style="fill:none; stroke:#000; stroke-miterlimit:10; stroke-width:1.92px;"/><line x1="48" y1="64.15" x2="48" y2="55.27" style="fill:none; stroke:#000; stroke-miterlimit:10; stroke-width:1.92px;"/></g></g></svg>