<?xml version="1.0" encoding="UTF-8"?><svg id="Layer_1" xmlns="http://www.w3.org/2000/svg" viewBox="0 0 94.03 95.7"><path d="m14.9,95.7c-8.22,0-14.9-6.69-14.9-14.9v-48.51c0-5.23,2.7-9.83,6.78-12.49l5.31-12.04C14.18,3.05,18.85,0,24.01,0s9.83,3.05,11.91,7.76l4.25,9.63h13.68l4.25-9.62c2.08-4.72,6.76-7.77,11.91-7.77s9.84,3.05,11.92,7.77l5.31,12.03c4.08,2.66,6.78,7.27,6.78,12.49v48.51c0,8.22-6.69,14.9-14.9,14.9H14.9Z" style="fill:#fff;"/><path d="m79.13,29.34h-.74l-7.39-16.75c-.37-.85-1.58-.85-1.95,0l-7.39,16.75h-29.27l-7.39-16.75c-.37-.85-1.58-.85-1.95,0l-7.39,16.75h-.74c-1.63,0-2.95,1.32-2.95,2.95v48.51c0,1.63,1.32,2.95,2.95,2.95h64.22c1.63,0,2.95-1.32,2.95-2.95v-48.51c0-1.63-1.32-2.95-2.95-2.95Z"/><g><rect x="11.96" y="29.34" width="70.12" height="54.4" rx="2.95" ry="2.95" style="fill:#fde25d; stroke:#000; stroke-miterlimit:10; stroke-width:2.11px;"/><g><path d="m23.03,12.59l-8.73,19.79h19.42l-8.73-19.79c-.37-.85-1.58-.85-1.95,0Z" style="fill:#a393f5; stroke:#000; stroke-miterlimit:10; stroke-width:2.11px;"/><path d="m69.04,12.59l-8.73,19.79h19.42l-8.73-19.79c-.37-.85-1.58-.85-1.95,0Z" style="fill:#a393f5; stroke:#000; stroke-miterlimit:10; stroke-width:2.11px;"/></g><path d="m14.9,29.34h64.22c1.63,0,2.95,1.32,2.95,2.95v14.33H11.96v-14.33c0-1.63,1.32-2.95,2.95-2.95Z" style="fill:#bdb1fb; stroke:#000; stroke-miterlimit:10; stroke-width:2.11px;"/><g><rect x="19.2" y="46.62" width="17.18" height="16.42" style="fill:#ec008c; stroke:#000; stroke-miterlimit:10; stroke-width:2.11px;"/><rect x="57.65" y="46.62" width="17.18" height="16.42" style="fill:#ec008c; stroke:#000; stroke-miterlimit:10; stroke-width:2.11px;"/></g><path d="m82.07,68.16h0v12.63c0,1.63-1.32,2.95-2.95,2.95h-10.81v-1.83c0-7.59,6.16-13.75,13.75-13.75Z" style="fill:#a393f5; stroke:#000; stroke-miterlimit:10; stroke-width:2.11px;"/><path d="m11.96,68.16h0c7.59,0,13.75,6.16,13.75,13.75v1.83h-10.81c-1.63,0-2.95-1.32-2.95-2.95v-12.63h0Z" style="fill:#a393f5; stroke:#000; stroke-miterlimit:10; stroke-width:2.11px;"/><path d="m47.01,73.95l-2.18-4.28-1.55-3.05c-.29-.57.12-1.24.76-1.24h5.96c.64,0,1.05.67.76,1.24l-1.55,3.05-2.18,4.28Z" style="fill:#a392fc; stroke:#000; stroke-miterlimit:10; stroke-width:2.11px;"/><polygon points="47.01 73.95 51.92 78.85 56.82 83.75 47.01 83.75 37.21 83.75 42.11 78.85 47.01 73.95" style="fill:#ffed9b; stroke:#000; stroke-miterlimit:10; stroke-width:2.11px;"/><path d="m47.62,32.11l1.18,2.43c.11.22.39.36.68.33l2.97-.29c.55-.05.92.43.62.8l-1.9,2.36c-.14.17-.14.39,0,.56l1.9,2.36c.3.37-.08.85-.62.8l-2.97-.29c-.29-.03-.58.11-.68.33l-1.18,2.43c-.21.44-1,.44-1.21,0l-1.18-2.43c-.11-.22-.39-.36-.68-.33l-2.97.29c-.55.05-.92-.43-.62-.8l1.9-2.36c.14-.17.14-.39,0-.56l-1.9-2.36c-.3-.37.08-.85.62-.8l2.97.29c.29.03.58-.11.68-.33l1.18-2.43c.21-.44,1-.44,1.21,0Z" style="fill:#ffeb9f; stroke:#000; stroke-miterlimit:10; stroke-width:2.11px;"/><g><line x1="56.53" y1="75.57" x2="56.53" y2="72.33" style="fill:none; stroke:#000; stroke-miterlimit:10; stroke-width:2.11px;"/><line x1="64.08" y1="75.57" x2="64.08" y2="72.33" style="fill:none; stroke:#000; stroke-miterlimit:10; stroke-width:2.11px;"/><line x1="60.31" y1="75.57" x2="60.31" y2="72.33" style="fill:none; stroke:#000; stroke-miterlimit:10; stroke-width:2.11px;"/></g><g><line x1="29.95" y1="75.57" x2="29.95" y2="72.33" style="fill:none; stroke:#000; stroke-miterlimit:10; stroke-width:2.11px;"/><line x1="37.5" y1="75.57" x2="37.5" y2="72.33" style="fill:none; stroke:#000; stroke-miterlimit:10; stroke-width:2.11px;"/><line x1="33.72" y1="75.57" x2="33.72" y2="72.33" style="fill:none; stroke:#000; stroke-miterlimit:10; stroke-width:2.11px;"/></g></g></svg>