<?xml version="1.0" encoding="UTF-8"?><svg id="Layer_1" xmlns="http://www.w3.org/2000/svg" viewBox="0 0 96 90.64"><path d="m63.98,90.64c-4.3,0-8.23-2.61-9.86-6.68l-.39-.97c-1.86.42-3.77.64-5.69.64s-3.84-.22-5.69-.64l-.39.97c-1.63,4.07-5.57,6.68-9.86,6.68-.46,0-.91-.03-1.38-.09-4.81-.63-8.59-4.43-9.18-9.25l-.4-3.28c-2.02-1.12-3.82-2.8-5.32-4.96l-1.54.38c-.84.2-1.68.3-2.52.3-3.85,0-7.48-2.09-9.36-5.6-1.59-2.96-1.66-6.41-.36-9.34-.46-.82-.82-1.72-1.05-2.67-.35-1.45-.39-2.91-.15-4.32-.11-.26-.21-.52-.29-.79-1.2-3.66-.31-7.59,2.15-10.36-.04-.27-.07-.55-.09-.83-.17-2.58.6-5.05,2.05-7.01-.37-1.46-.43-3.01-.15-4.54.65-3.56,3.08-6.54,6.43-7.91l9.75-3.99.87-7.05C22.12,4.52,25.9.71,30.71.09c.46-.06.92-.09,1.38-.09,4.3,0,8.23,2.61,9.86,6.68l.34.84,1.71-.7c1.29-.53,2.66-.79,4.03-.79s2.74.26,4.03.79l1.71.7.34-.84c1.63-4.07,5.57-6.68,9.86-6.68.46,0,.91.03,1.38.09,4.81.63,8.59,4.43,9.18,9.25l.87,7.05,9.75,3.99c3.35,1.37,5.77,4.35,6.43,7.91.29,1.55.22,3.12-.17,4.61,1.42,1.96,2.17,4.39,2,6.94-.02.28-.05.55-.09.83,2.46,2.77,3.34,6.7,2.15,10.36-.09.27-.19.53-.29.79.24,1.41.2,2.87-.15,4.32-.23.95-.59,1.85-1.05,2.67,1.3,2.93,1.23,6.38-.36,9.34-1.88,3.5-5.52,5.6-9.36,5.6-.83,0-1.68-.1-2.52-.3l-1.48-.36c-1.5,2.15-3.3,3.83-5.31,4.95l-.4,3.28c-.59,4.82-4.37,8.62-9.18,9.25-.46.06-.92.09-1.38.09Z" style="fill:#fff;"/><path d="m74.55,47.04l10.81.68-11.48-7.36,8.92-1.23-10.14-2.8c2.91-1.62,5.79-3.63,8.46-6.13l-15.51-6.35-1.63-13.23-4.32,10.79-11.63-4.77-11.63,4.77-4.32-10.79-1.63,13.23-15.51,6.35c2.66,2.49,5.53,4.5,8.43,6.11l-10.18,2.81,8.92,1.23-11.48,7.36,10.81-.68-10.15,6.57,9.7.92-9.25,8.58,10.42-2.54c.1.6.22,1.21.38,1.82,1.03,4,3.03,6.66,4.77,6.6.04.02.08.04.12.06.08.04.15.08.23.12.06.03.12.06.18.09.11.05.23.1.34.14.05.02.09.03.14.05.12.04.24.08.37.12.05.01.1.03.16.04.1.02.2.05.3.07.06.01.11.02.17.03.1.02.21.03.31.04.05,0,.1.01.15.02.15.01.31.02.47.02h.59l1.26,10.22,4.09-10.22h.87c1.03,0,2.03.29,2.9.84,4.94,3.14,11.25,3.14,16.18,0,.87-.55,1.87-.84,2.9-.84h.87l4.09,10.22,1.26-10.22h.59c.21,0,.41-.01.61-.04.06,0,.11-.02.17-.02.15-.02.3-.05.46-.08.05-.01.1-.02.15-.04.4-.1.79-.25,1.17-.43.03-.01.06-.03.08-.04.09-.05.19-.09.28-.15,1.73.06,3.73-2.6,4.77-6.6.16-.6.28-1.21.38-1.8l10.36,2.52-9.25-8.58,9.7-.92-10.15-6.57Z"/><g><polygon points="59.01 67.57 63.99 80.01 65.82 65.06 59.01 67.57" style="fill:#c12121; stroke:#000; stroke-miterlimit:10; stroke-width:1.89px;"/><polygon points="37.06 67.57 32.08 80.01 30.24 65.06 37.06 67.57" style="fill:#c12121; stroke:#000; stroke-miterlimit:10; stroke-width:1.89px;"/></g><path d="m28.22,34.99l-15.02,4.14,8.92,1.23-11.48,7.36,10.81-.68-10.15,6.57,9.7.92-9.25,8.58,16.6-4.04,17.29-21.43s1.62-9.79-17.42-2.64Z" style="fill:#3eb6d6; stroke:#000; stroke-miterlimit:10; stroke-width:1.88px;"/><path d="m67.78,34.99l15.02,4.14-8.92,1.23,11.48,7.36-10.81-.68,10.15,6.57-9.7.92,9.25,8.58-16.6-4.04-17.29-21.43s-1.62-9.79,17.42-2.64Z" style="fill:#3eb6d6; stroke:#000; stroke-miterlimit:10; stroke-width:1.88px;"/><path d="m69.88,35.95c-5.2-5.91-12.78-3.46-15.33-2.39-.63.26-1.3.41-1.98.43l-4.55.11-4.55-.11c-.68-.02-1.35-.16-1.98-.43-2.55-1.07-10.13-3.52-15.33,2.39-.63.72-1.04,1.61-1.21,2.55l-2.76,15.31c-1.45,8.04,2.54,15.98,8.02,15.98h6.81c1.03,0,2.03.29,2.9.84h0c4.94,3.14,11.25,3.14,16.18,0h0c.87-.55,1.87-.84,2.9-.84h6.81c5.49,0,9.47-7.93,8.02-15.98l-2.76-15.31c-.17-.94-.58-1.83-1.21-2.55Z" style="fill:#7e6b8e; stroke:#000; stroke-miterlimit:10; stroke-width:1.88px;"/><path d="m30.24,69.79h8.38c5.74,3.66,13.09,3.66,18.83,0h0s8.38,0,8.38,0c1.82,0,3.48-.88,4.83-2.34l-.53-2.24-22.09-8.68-20.61,8.27-2.8,1.67c1.46,2.04,3.42,3.31,5.61,3.31Z" style="fill:#b049c9; stroke:#000; stroke-miterlimit:10; stroke-width:1.88px;"/><g><polygon points="37.06 23.07 32.08 10.63 30.24 25.58 37.06 23.07" style="fill:#c12121; stroke:#000; stroke-miterlimit:10; stroke-width:1.89px;"/><polygon points="59.01 23.07 63.99 10.63 65.82 25.58 59.01 23.07" style="fill:#c12121; stroke:#000; stroke-miterlimit:10; stroke-width:1.89px;"/></g><polygon points="29.02 37.91 32.33 51.35 48.97 42.27 29.02 37.91" style="fill:#e2dd2b; stroke:#000; stroke-miterlimit:10; stroke-width:1.88px;"/><polygon points="67.04 37.91 63.74 51.35 47.1 42.27 67.04 37.91" style="fill:#e2dd2b; stroke:#000; stroke-miterlimit:10; stroke-width:1.88px;"/><polyline points="24.23 65.89 48.03 56.53 71.84 65.89" style="fill:none; stroke:#000; stroke-miterlimit:10; stroke-width:1.88px;"/><g><line x1="40.9" y1="56.1" x2="44.7" y2="54.61" style="fill:none; stroke:#000; stroke-miterlimit:10; stroke-width:1.88px;"/><line x1="55.16" y1="56.1" x2="51.36" y2="54.61" style="fill:none; stroke:#000; stroke-miterlimit:10; stroke-width:1.88px;"/></g><ellipse cx="70.12" cy="60.37" rx="8.75" ry="3.76" transform="translate(-2.14 118.15) rotate(-79.37)" style="fill:#c66c9f; stroke:#000; stroke-miterlimit:10; stroke-width:1.88px;"/><ellipse cx="25.95" cy="60.37" rx="3.76" ry="8.75" transform="translate(-10.69 5.82) rotate(-10.63)" style="fill:#c66c9f; stroke:#000; stroke-miterlimit:10; stroke-width:1.88px;"/><path d="m48.03,16.66L14.94,30.21c13.77,12.9,33.09,12.77,33.09,12.77,0,0,19.32.13,33.09-12.77l-33.09-13.56Z" style="fill:#5050ff; stroke:#000; stroke-miterlimit:10; stroke-width:1.71px;"/></svg>