<?xml version="1.0" encoding="UTF-8"?><svg id="Layer_1" xmlns="http://www.w3.org/2000/svg" viewBox="0 0 96 96"><path d="m48,96c-3.41,0-6.67-1.35-9.08-3.76L3.76,57.08c-2.41-2.41-3.76-5.68-3.76-9.08s1.35-6.67,3.76-9.08L38.92,3.76c2.51-2.51,5.8-3.76,9.08-3.76s6.57,1.25,9.08,3.76l35.16,35.16c5.02,5.02,5.02,13.15,0,18.16l-35.16,35.16c-2.41,2.41-5.68,3.76-9.08,3.76Z" style="fill:#fff;"/><rect x="23.14" y="23.14" width="49.72" height="49.72" transform="translate(-19.88 48) rotate(-45)"/><rect x="23.14" y="23.14" width="49.72" height="49.72" transform="translate(-19.88 48) rotate(-45)" style="fill:#662d91; stroke:#000; stroke-miterlimit:10; stroke-width:2.27px;"/><rect x="34.82" y="34.82" width="26.36" height="26.36" transform="translate(-19.88 48) rotate(-45)" style="fill:#662d91; stroke:#000; stroke-miterlimit:10; stroke-width:2.27px;"/></svg>