<?xml version="1.0" encoding="UTF-8"?><svg id="Layer_1" xmlns="http://www.w3.org/2000/svg" viewBox="0 0 94.95 96"><path d="m47.47,96c-2.99,0-5.77-.99-8-2.69-1.24.39-2.55.59-3.89.59h0c-3.94,0-7.64-1.73-10.16-4.76-.35-.42-.67-.85-.96-1.3-4.47-.22-8.57-2.71-10.81-6.62-.66-1.16-1.14-2.39-1.42-3.66-3.33-1.41-6.03-4.15-7.31-7.69-.72-2-.93-4.1-.68-6.13-2.07-1.91-3.53-4.49-4.05-7.44-.51-2.93-.02-5.82,1.26-8.31-1.27-2.48-1.77-5.37-1.26-8.3.51-2.96,1.98-5.54,4.05-7.46-.26-2.03-.05-4.13.68-6.13,1.28-3.53,3.98-6.28,7.31-7.69.29-1.27.76-2.5,1.42-3.65,2.24-3.91,6.34-6.4,10.81-6.62.29-.45.61-.88.95-1.3,2.52-3.02,6.22-4.76,10.16-4.76,1.34,0,2.65.2,3.89.59,2.23-1.7,5.01-2.69,8-2.69s5.77.99,8,2.69c1.24-.39,2.56-.59,3.89-.59,3.94,0,7.64,1.73,10.16,4.76.35.42.67.85.95,1.3,4.47.22,8.57,2.71,10.81,6.62.66,1.16,1.14,2.39,1.42,3.66,3.33,1.41,6.03,4.16,7.31,7.69.72,2,.93,4.1.68,6.13,2.07,1.91,3.53,4.5,4.05,7.46.51,2.93.01,5.82-1.26,8.3,1.28,2.48,1.77,5.38,1.26,8.31-.51,2.95-1.98,5.53-4.05,7.44.26,2.03.05,4.13-.68,6.13-1.28,3.53-3.98,6.28-7.31,7.69-.29,1.27-.76,2.5-1.42,3.66-2.24,3.91-6.34,6.4-10.81,6.62-.29.45-.61.88-.95,1.3-2.52,3.02-6.22,4.76-10.16,4.76-1.34,0-2.65-.2-3.89-.59-2.23,1.7-5.01,2.69-8,2.69Z" style="fill:#fff;"/><path d="m47.59,13.19l2.91,17c.02.11.17.14.22.04l8.55-14.98c.07-.12.24-.05.22.08l-3.08,16.97c-.02.11.11.18.19.11l13.16-11.15c.1-.09.25.04.18.15l-8.7,14.89c-.06.1.04.21.14.17l16.18-5.98c.13-.05.22.12.12.2l-13.27,11.02c-.09.07-.04.21.08.21l17.25-.09c.13,0,.17.19.04.23l-16.24,5.82c-.11.04-.11.19,0,.22l16.24,5.82c.13.05.09.23-.04.23l-17.25-.09c-.11,0-.16.14-.08.21l13.27,11.02c.1.09,0,.25-.12.2l-16.18-5.98c-.11-.04-.2.08-.14.17l8.7,14.89c.07.12-.08.24-.18.15l-13.16-11.15c-.09-.07-.21,0-.19.11l3.08,16.97c.02.13-.15.2-.22.08l-8.55-14.98c-.06-.1-.2-.07-.22.04l-2.91,17c-.02.13-.21.13-.24,0l-2.91-17c-.02-.11-.17-.14-.22-.04l-8.55,14.98c-.07.12-.24.05-.22-.08l3.08-16.97c.02-.11-.11-.18-.19-.11l-13.16,11.15c-.1.09-.25-.04-.18-.15l8.7-14.89c.06-.1-.04-.21-.14-.17l-16.18,5.98c-.13.05-.22-.12-.12-.2l13.27-11.02c.09-.07.04-.21-.08-.21l-17.25.09c-.13,0-.17-.19-.04-.23l16.24-5.82c.11-.04.11-.19,0-.22l-16.24-5.82c-.13-.05-.09-.23.04-.23l17.25.09c.11,0,.16-.14.08-.21l-13.27-11.02c-.1-.09,0-.25.12-.2l16.18,5.98c.11.04.2-.08.14-.17l-8.7-14.89c-.07-.12.08-.24.18-.15l13.16,11.15c.09.07.21,0,.19-.11l-3.08-16.97c-.02-.13.15-.2.22-.08l8.55,14.98c.06.1.2.07.22-.04l2.91-17c.02-.13.21-.13.24,0Z"/><path d="m47.59,13.19l2.91,17c.02.11.17.14.22.04l8.55-14.98c.07-.12.24-.05.22.08l-3.08,16.97c-.02.11.11.18.19.11l13.16-11.15c.1-.09.25.04.18.15l-8.7,14.89c-.06.1.04.21.14.17l16.18-5.98c.13-.05.22.12.12.2l-13.27,11.02c-.09.07-.04.21.08.21l17.25-.09c.13,0,.17.19.04.23l-16.24,5.82c-.11.04-.11.19,0,.22l16.24,5.82c.13.05.09.23-.04.23l-17.25-.09c-.11,0-.16.14-.08.21l13.27,11.02c.1.09,0,.25-.12.2l-16.18-5.98c-.11-.04-.2.08-.14.17l8.7,14.89c.07.12-.08.24-.18.15l-13.16-11.15c-.09-.07-.21,0-.19.11l3.08,16.97c.02.13-.15.2-.22.08l-8.55-14.98c-.06-.1-.2-.07-.22.04l-2.91,17c-.02.13-.21.13-.24,0l-2.91-17c-.02-.11-.17-.14-.22-.04l-8.55,14.98c-.07.12-.24.05-.22-.08l3.08-16.97c.02-.11-.11-.18-.19-.11l-13.16,11.15c-.1.09-.25-.04-.18-.15l8.7-14.89c.06-.1-.04-.21-.14-.17l-16.18,5.98c-.13.05-.22-.12-.12-.2l13.27-11.02c.09-.07.04-.21-.08-.21l-17.25.09c-.13,0-.17-.19-.04-.23l16.24-5.82c.11-.04.11-.19,0-.22l-16.24-5.82c-.13-.05-.09-.23.04-.23l17.25.09c.11,0,.16-.14.08-.21l-13.27-11.02c-.1-.09,0-.25.12-.2l16.18,5.98c.11.04.2-.08.14-.17l-8.7-14.89c-.07-.12.08-.24.18-.15l13.16,11.15c.09.07.21,0,.19-.11l-3.08-16.97c-.02-.13.15-.2.22-.08l8.55,14.98c.06.1.2.07.22-.04l2.91-17c.02-.13.21-.13.24,0Z" style="fill:#2bb673; stroke:#000; stroke-miterlimit:10; stroke-width:2.31px;"/><path d="m47.59,35.33l.99,5.77c.02.11.17.14.22.04l2.9-5.08c.07-.12.24-.05.22.08l-1.05,5.75c-.02.11.11.18.19.11l4.46-3.78c.1-.09.25.04.18.15l-2.95,5.05c-.06.1.04.21.14.17l5.49-2.03c.13-.05.22.12.12.2l-4.5,3.74c-.09.07-.04.21.08.21l5.85-.03c.13,0,.17.19.04.23l-5.51,1.97c-.11.04-.11.19,0,.22l5.51,1.97c.13.05.09.23-.04.23l-5.85-.03c-.11,0-.16.14-.08.21l4.5,3.74c.1.09,0,.25-.12.2l-5.49-2.03c-.11-.04-.2.08-.14.17l2.95,5.05c.07.12-.08.24-.18.15l-4.46-3.78c-.09-.07-.21,0-.19.11l1.05,5.75c.02.13-.15.2-.22.08l-2.9-5.08c-.06-.1-.2-.07-.22.04l-.99,5.77c-.02.13-.21.13-.24,0l-.99-5.77c-.02-.11-.17-.14-.22-.04l-2.9,5.08c-.07.12-.24.05-.22-.08l1.05-5.75c.02-.11-.11-.18-.19-.11l-4.46,3.78c-.1.09-.25-.04-.18-.15l2.95-5.05c.06-.1-.04-.21-.14-.17l-5.49,2.03c-.13.05-.22-.12-.12-.2l4.5-3.74c.09-.07.04-.21-.08-.21l-5.85.03c-.13,0-.17-.19-.04-.23l5.51-1.97c.11-.04.11-.19,0-.22l-5.51-1.97c-.13-.05-.09-.23.04-.23l5.85.03c.11,0,.16-.14.08-.21l-4.5-3.74c-.1-.09,0-.25.12-.2l5.49,2.03c.11.04.2-.08.14-.17l-2.95-5.05c-.07-.12.08-.24.18-.15l4.46,3.78c.09.07.21,0,.19-.11l-1.05-5.75c-.02-.13.15-.2.22-.08l2.9,5.08c.06.1.2.07.22-.04l.99-5.77c.02-.13.21-.13.24,0Z" style="fill:#2bb673; stroke:#000; stroke-miterlimit:10; stroke-width:2.31px;"/></svg>