<?xml version="1.0" encoding="UTF-8"?><svg id="Layer_1" xmlns="http://www.w3.org/2000/svg" viewBox="0 0 95.03 96"><path d="m47.52,96c-2.93,0-5.68-.79-8.06-2.18-.93.17-1.89.26-2.87.26h0c-4.77,0-9.25-2.09-12.3-5.74-.01-.01-.02-.03-.03-.04-4.65-.79-8.79-3.64-11.2-7.83-.48-.84-.88-1.7-1.19-2.58-3.22-1.84-5.79-4.81-7.12-8.47-.66-1.83-.97-3.7-.96-5.54-1.79-2.1-3.04-4.69-3.55-7.58-.5-2.88-.2-5.72.77-8.3-.96-2.57-1.26-5.42-.77-8.29.5-2.89,1.76-5.48,3.55-7.59-.01-1.84.3-3.71.96-5.54,1.32-3.66,3.89-6.62,7.12-8.47.32-.88.71-1.74,1.19-2.58,2.4-4.19,6.55-7.04,11.2-7.83.01-.01.02-.03.03-.04,3.05-3.65,7.53-5.74,12.3-5.74.98,0,1.94.09,2.87.26,2.37-1.39,5.13-2.18,8.06-2.18s5.68.79,8.06,2.18c.93-.17,1.89-.26,2.87-.26,4.77,0,9.26,2.09,12.3,5.74.01.01.02.03.03.04,4.65.79,8.79,3.64,11.2,7.83.48.84.88,1.7,1.19,2.58,3.22,1.84,5.79,4.81,7.12,8.47.66,1.83.97,3.7.96,5.54,1.79,2.1,3.04,4.69,3.55,7.58.5,2.88.2,5.72-.77,8.29.96,2.57,1.26,5.42.77,8.29-.5,2.89-1.76,5.48-3.55,7.59.01,1.84-.3,3.71-.96,5.54-1.32,3.66-3.89,6.62-7.12,8.47-.32.88-.71,1.74-1.19,2.58-2.4,4.19-6.55,7.03-11.2,7.83-.01.01-.02.03-.03.04-3.05,3.65-7.53,5.74-12.3,5.74-.98,0-1.94-.09-2.87-.26-2.37,1.39-5.13,2.18-8.06,2.18Z" style="fill:#fff;"/><path d="m50.43,15.4h0c.47,2.74,4.11,3.38,5.49.97h0c1.65-2.89,6.08-1.28,5.48,2h0c-.5,2.73,2.71,4.58,4.83,2.79h0c2.54-2.15,6.15.88,4.47,3.75h0c-1.4,2.4.98,5.23,3.58,4.27h0c3.12-1.15,5.48,2.93,2.92,5.05h0c-2.14,1.78-.87,5.25,1.91,5.24h0c3.33-.02,4.15,4.63,1.01,5.75h0c-2.62.94-2.62,4.64,0,5.57h0c3.13,1.12,2.32,5.77-1.01,5.75h0c-2.78-.01-4.04,3.46-1.91,5.24h0c2.56,2.13.2,6.21-2.92,5.05h0c-2.61-.96-4.99,1.87-3.58,4.27h0c1.68,2.88-1.93,5.91-4.47,3.75h0c-2.12-1.8-5.32.05-4.83,2.79h0c.6,3.28-3.83,4.89-5.48,2h0c-1.38-2.41-5.02-1.77-5.49.97h0c-.56,3.28-5.28,3.28-5.84,0h0c-.47-2.74-4.11-3.38-5.49-.97h0c-1.65,2.89-6.08,1.28-5.48-2h0c.5-2.73-2.71-4.58-4.83-2.79h0c-2.54,2.15-6.15-.88-4.47-3.75h0c1.4-2.4-.98-5.23-3.58-4.27h0c-3.12,1.15-5.48-2.93-2.92-5.05h0c2.14-1.78.87-5.25-1.91-5.24h0c-3.33.02-4.15-4.63-1.01-5.75h0c2.62-.94,2.62-4.64,0-5.57h0c-3.13-1.12-2.32-5.77,1.01-5.75h0c2.78.01,4.04-3.46,1.91-5.24h0c-2.56-2.13-.2-6.21,2.92-5.05h0c2.61.96,4.99-1.87,3.58-4.27h0c-1.68-2.88,1.93-5.91,4.47-3.75h0c2.12,1.8,5.32-.05,4.83-2.79h0c-.6-3.28,3.83-4.89,5.48-2h0c1.38,2.41,5.02,1.77,5.49-.97h0c.56-3.28,5.28-3.28,5.84,0Z"/><path d="m50.43,15.4h0c.47,2.74,4.11,3.38,5.49.97h0c1.65-2.89,6.08-1.28,5.48,2h0c-.5,2.73,2.71,4.58,4.83,2.79h0c2.54-2.15,6.15.88,4.47,3.75h0c-1.4,2.4.98,5.23,3.58,4.27h0c3.12-1.15,5.48,2.93,2.92,5.05h0c-2.14,1.78-.87,5.25,1.91,5.24h0c3.33-.02,4.15,4.63,1.01,5.75h0c-2.62.94-2.62,4.64,0,5.57h0c3.13,1.12,2.32,5.77-1.01,5.75h0c-2.78-.01-4.04,3.46-1.91,5.24h0c2.56,2.13.2,6.21-2.92,5.05h0c-2.61-.96-4.99,1.87-3.58,4.27h0c1.68,2.88-1.93,5.91-4.47,3.75h0c-2.12-1.8-5.32.05-4.83,2.79h0c.6,3.28-3.83,4.89-5.48,2h0c-1.38-2.41-5.02-1.77-5.49.97h0c-.56,3.28-5.28,3.28-5.84,0h0c-.47-2.74-4.11-3.38-5.49-.97h0c-1.65,2.89-6.08,1.28-5.48-2h0c.5-2.73-2.71-4.58-4.83-2.79h0c-2.54,2.15-6.15-.88-4.47-3.75h0c1.4-2.4-.98-5.23-3.58-4.27h0c-3.12,1.15-5.48-2.93-2.92-5.05h0c2.14-1.78.87-5.25-1.91-5.24h0c-3.33.02-4.15-4.63-1.01-5.75h0c2.62-.94,2.62-4.64,0-5.57h0c-3.13-1.12-2.32-5.77,1.01-5.75h0c2.78.01,4.04-3.46,1.91-5.24h0c-2.56-2.13-.2-6.21,2.92-5.05h0c2.61.96,4.99-1.87,3.58-4.27h0c-1.68-2.88,1.93-5.91,4.47-3.75h0c2.12,1.8,5.32-.05,4.83-2.79h0c-.6-3.28,3.83-4.89,5.48-2h0c1.38,2.41,5.02,1.77,5.49-.97h0c.56-3.28,5.28-3.28,5.84,0Z" style="fill:#8200ff; stroke:#000; stroke-miterlimit:10; stroke-width:2.28px;"/><path d="m49.1,30.35h0c.25,1.48,2.23,1.83,2.97.52h0c.89-1.57,3.29-.69,2.97,1.08h0c-.27,1.48,1.47,2.48,2.61,1.51h0c1.38-1.17,3.33.47,2.42,2.03h0c-.76,1.3.53,2.83,1.94,2.31h0c1.69-.63,2.97,1.58,1.58,2.74h0c-1.16.96-.47,2.84,1.03,2.84h0c1.8,0,2.25,2.5.55,3.11h0c-1.42.51-1.42,2.51,0,3.02h0c1.7.61,1.25,3.12-.55,3.11h0c-1.5,0-2.19,1.87-1.03,2.84h0c1.39,1.15.11,3.36-1.58,2.74h0c-1.41-.52-2.7,1.01-1.94,2.31h0c.91,1.56-1.05,3.2-2.42,2.03h0c-1.15-.97-2.88.03-2.61,1.51h0c.32,1.77-2.08,2.65-2.97,1.08h0c-.75-1.31-2.72-.96-2.97.52h0c-.3,1.78-2.86,1.78-3.16,0h0c-.25-1.48-2.23-1.83-2.97-.52h0c-.89,1.57-3.29.69-2.97-1.08h0c.27-1.48-1.47-2.48-2.61-1.51h0c-1.38,1.17-3.33-.47-2.42-2.03h0c.76-1.3-.53-2.83-1.94-2.31h0c-1.69.63-2.97-1.58-1.58-2.74h0c1.16-.96.47-2.84-1.03-2.84h0c-1.8,0-2.25-2.5-.55-3.11h0c1.42-.51,1.42-2.51,0-3.02h0c-1.7-.61-1.25-3.12.55-3.11h0c1.5,0,2.19-1.87,1.03-2.84h0c-1.39-1.15-.11-3.36,1.58-2.74h0c1.41.52,2.7-1.01,1.94-2.31h0c-.91-1.56,1.05-3.2,2.42-2.03h0c1.15.97,2.88-.03,2.61-1.51h0c-.32-1.77,2.08-2.65,2.97-1.08h0c.75,1.31,2.72.96,2.97-.52h0c.3-1.78,2.86-1.78,3.16,0Z" style="fill:#8200ff; stroke:#000; stroke-miterlimit:10; stroke-width:2.28px;"/></svg>