<?xml version="1.0" encoding="UTF-8"?><svg id="Layer_1" xmlns="http://www.w3.org/2000/svg" viewBox="0 0 31.71 29.23"><path d="m17.44,29.23c-2.71,0-5.04-1.7-5.97-4.09h-5.62c-3.23,0-5.86-2.63-5.86-5.86V5.86C0,2.63,2.63,0,5.86,0h20c3.23,0,5.86,2.63,5.86,5.86v16.98c0,3.53-2.87,6.39-6.39,6.39h-7.88Z" style="fill:#fff;"/><path d="m25.86,4.23H5.86c-.9,0-1.62.73-1.62,1.62v13.43c0,.9.73,1.62,1.62,1.62h9.43v1.93c0,1.19.97,2.16,2.16,2.16h7.88c1.19,0,2.16-.97,2.16-2.16V5.86c0-.9-.73-1.62-1.62-1.62Z" style="fill:#ed1c24;"/><path d="m25.86,4.23H5.86c-.9,0-1.62.73-1.62,1.62v13.43c0,.9.73,1.62,1.62,1.62h9.43v1.93c0,1.19.97,2.16,2.16,2.16h7.88c1.19,0,2.16-.97,2.16-2.16V5.86c0-.9-.73-1.62-1.62-1.62Z" style="fill:#fff;"/><path d="m16.08,17.23h11.4v5.61c0,1.19-.97,2.16-2.16,2.16h-7.88c-1.19,0-2.16-.97-2.16-2.16v-4.81c0-.44.36-.8.8-.8Z" style="fill:#ed1c24; stroke:#000; stroke-linecap:round; stroke-linejoin:round;"/><rect x="4.23" y="4.23" width="23.25" height="16.67" rx="1.62" ry="1.62" style="fill:#ed1c24; stroke:#000; stroke-linecap:round; stroke-linejoin:round;"/><line x1="10.96" y1="20.91" x2="10.96" y2="13.93" style="fill:#ed1c24; stroke:#000; stroke-linecap:round; stroke-linejoin:round;"/><line x1="20.75" y1="20.91" x2="20.75" y2="13.93" style="fill:#ed1c24; stroke:#000; stroke-linecap:round; stroke-linejoin:round;"/></svg>