<?xml version="1.0" encoding="UTF-8"?><svg id="Layer_1" xmlns="http://www.w3.org/2000/svg" viewBox="0 0 29.54 32"><path d="m14.77,32c-1.23,0-2.41-.38-3.41-1.1C8.31,28.73,1.11,22.54.03,12.18c-.31-2.93,1.63-5.66,4.49-6.34,1.25-.3,3.62-1.14,5.4-3.45,1.17-1.51,2.93-2.38,4.85-2.38s3.68.87,4.85,2.38c1.78,2.31,4.15,3.16,5.4,3.46,2.87.68,4.8,3.41,4.49,6.34-1.08,10.36-8.28,16.55-11.32,18.73-1,.72-2.18,1.1-3.41,1.1Z" style="fill:#fff;"/><path d="m13.29,4.98c-2.57,3.33-5.94,4.56-7.78,5-.8.19-1.33.94-1.24,1.76.91,8.73,7.16,13.99,9.57,15.71.56.4,1.31.4,1.87,0,2.4-1.72,8.66-6.98,9.57-15.71.09-.82-.44-1.57-1.24-1.76-1.84-.44-5.21-1.66-7.78-5-.74-.96-2.21-.96-2.96,0Z" style="fill:#fff;"/><path d="m13.29,4.98c-2.57,3.33-5.94,4.56-7.78,5-.8.19-1.33.94-1.24,1.76.91,8.73,7.16,13.99,9.57,15.71.56.4,1.31.4,1.87,0,2.4-1.72,8.66-6.98,9.57-15.71.09-.82-.44-1.57-1.24-1.76-1.84-.44-5.21-1.66-7.78-5-.74-.96-2.21-.96-2.96,0Z" style="fill:#00aeef; stroke:#000; stroke-miterlimit:10;"/><path d="m13.71,8.1c-1.84,2.39-4.26,3.27-5.58,3.58-.57.14-.95.67-.89,1.26.65,6.25,5.13,10.02,6.86,11.26.4.29.94.29,1.34,0,1.72-1.23,6.2-5,6.86-11.26.06-.59-.32-1.12-.89-1.26-1.32-.31-3.74-1.19-5.58-3.58-.53-.69-1.59-.69-2.12,0Z" style="fill:#00aeef; stroke:#000; stroke-miterlimit:10;"/></svg>