<?xml version="1.0" encoding="UTF-8"?><svg id="Layer_1" xmlns="http://www.w3.org/2000/svg" viewBox="0 0 32 29.78"><path d="m11.84,29.78c-2.73,0-5.28-1.47-6.65-3.84l-4.16-7.21c-1.37-2.37-1.37-5.31,0-7.68L5.19,3.84c1.37-2.37,3.91-3.84,6.65-3.84h8.33c2.73,0,5.28,1.47,6.65,3.84l4.16,7.21c1.37,2.37,1.37,5.31,0,7.68l-4.16,7.21c-1.37,2.37-3.91,3.84-6.65,3.84h-8.33Z" style="fill:#fff;"/><path d="m20.16,4.48h-8.33c-1.14,0-2.2.61-2.77,1.6l-4.16,7.21c-.57.99-.57,2.21,0,3.19l4.16,7.21c.57.99,1.63,1.6,2.77,1.6h8.33c1.14,0,2.2-.61,2.77-1.6l4.16-7.21c.57-.99.57-2.21,0-3.19l-4.16-7.21c-.57-.99-1.63-1.6-2.77-1.6Z" style="fill:#fff;"/><path d="m20.16,4.48h-8.33c-1.14,0-2.2.61-2.77,1.6l-4.16,7.21c-.57.99-.57,2.21,0,3.19l4.16,7.21c.57.99,1.63,1.6,2.77,1.6h8.33c1.14,0,2.2-.61,2.77-1.6l4.16-7.21c.57-.99.57-2.21,0-3.19l-4.16-7.21c-.57-.99-1.63-1.6-2.77-1.6Z" style="fill:#fff;"/><path d="m20.16,4.48h-8.33c-1.14,0-2.2.61-2.77,1.6l-4.16,7.21c-.57.99-.57,2.21,0,3.19l4.16,7.21c.57.99,1.63,1.6,2.77,1.6h8.33c1.14,0,2.2-.61,2.77-1.6l4.16-7.21c.57-.99.57-2.21,0-3.19l-4.16-7.21c-.57-.99-1.63-1.6-2.77-1.6Z"/><path d="m20.16,4.48h-8.33c-1.14,0-2.2.61-2.77,1.6l-4.16,7.21c-.57.99-.57,2.21,0,3.19l4.16,7.21c.57.99,1.63,1.6,2.77,1.6h8.33c1.14,0,2.2-.61,2.77-1.6l4.16-7.21c.57-.99.57-2.21,0-3.19l-4.16-7.21c-.57-.99-1.63-1.6-2.77-1.6Z" style="fill:#fff200; stroke:#000; stroke-linecap:round; stroke-linejoin:round;"/><path d="m18.15,9.51h-4.3c-.59,0-1.13.31-1.43.83l-2.15,3.73c-.29.51-.29,1.14,0,1.65l2.15,3.73c.29.51.84.83,1.43.83h4.3c.59,0,1.13-.31,1.43-.83l2.15-3.73c.29-.51.29-1.14,0-1.65l-2.15-3.73c-.29-.51-.84-.83-1.43-.83Z" style="fill:#fff200; stroke:#000; stroke-linecap:round; stroke-linejoin:round;"/></svg>