<?xml version="1.0" encoding="UTF-8"?><svg id="Layer_1" xmlns="http://www.w3.org/2000/svg" viewBox="0 0 23.65 32"><path d="m11.88,32c-3.19,0-6.11-1.14-8.46-3.29C.28,25.83-.74,21.81.54,17.38c.91-3.15,2.49-6.01,4.84-8.73.85-.98,2.03-1.58,3.29-1.69.42-1.89,1.24-3.61,2.45-5.13.93-1.16,2.31-1.83,3.78-1.83,1.32,0,2.59.55,3.5,1.51.93.98,1.41,2.28,1.33,3.66-.1,1.96.71,3.88,1.65,6.1.27.64.55,1.3.82,1.98,1.04,2.67,1.98,5.9,1.1,9.63-1.25,5.28-4.76,8.49-9.9,9.04-.51.06-1.03.08-1.53.08h0Z" style="fill:#fff; fill-rule:evenodd;"/><path d="m18.51,14.68c-1.22-3.13-2.92-6.13-2.73-9.72.05-.91-1.01-1.35-1.57-.65-1.1,1.38-1.72,2.95-1.87,4.82-.12,1.51-.19,3.03-.95,4.4-.24.43-.46.99-1.05.84-.59-.15-.5-.76-.51-1.25-.01-.37.02-.73.09-1.1.17-.95-.92-1.5-1.54-.78-1.87,2.17-3.25,4.5-4.04,7.24-.82,2.84-.36,5.38,1.76,7.31,1.95,1.78,4.29,2.47,6.88,2.19,3.47-.38,5.62-2.41,6.47-6.01.61-2.6-.03-4.96-.94-7.29Z" style="fill:#fff; fill-rule:evenodd;"/><path d="m18.51,14.68c-1.22-3.13-2.92-6.13-2.73-9.72.05-.91-1.01-1.35-1.57-.65-1.1,1.38-1.72,2.95-1.87,4.82-.12,1.51-.19,3.03-.95,4.4-.24.43-.46.99-1.05.84-.59-.15-.5-.76-.51-1.25-.01-.37.02-.73.09-1.1.17-.95-.92-1.5-1.54-.78-1.87,2.17-3.25,4.5-4.04,7.24-.82,2.84-.36,5.38,1.76,7.31,1.95,1.78,4.29,2.47,6.88,2.19,3.47-.38,5.62-2.41,6.47-6.01.61-2.6-.03-4.96-.94-7.29Z" style="fill-rule:evenodd;"/></svg>