<?xml version="1.0" encoding="UTF-8"?><svg id="Layer_1" xmlns="http://www.w3.org/2000/svg" viewBox="0 0 30.74 28.52"><g><path d="m15.37,28.52c-.86,0-1.72-.29-2.43-.86-3.5-2.85-5.8-4.79-7.9-6.9C.24,16.04-.03,11.39,0,10.05c0-.07,0-.15,0-.22,0-2.59,1.03-5.04,2.89-6.91C4.77,1.04,7.25,0,9.89,0c1.98,0,3.88.62,5.49,1.71,1.61-1.09,3.51-1.71,5.49-1.71,2.63,0,5.11,1.04,6.99,2.92,1.86,1.87,2.89,4.32,2.89,6.91,0,.07,0,.15,0,.22.03,1.34-.23,5.99-5.03,10.71-2.1,2.1-4.4,4.05-7.9,6.9-.71.58-1.57.86-2.43.86Z" style="fill:#fff;"/><path d="m26.89,10.07h0c0-.08,0-.16,0-.24,0-3.2-2.7-5.98-6.03-5.98-2.44,0-4.53,1.57-5.49,3.57h0c-.95-2-3.05-3.57-5.49-3.57-3.33,0-6.03,2.78-6.03,5.98,0,.08,0,.16,0,.24h0s-.34,3.8,3.89,7.96c1.92,1.93,4.08,3.76,7.62,6.64,3.54-2.88,5.7-4.71,7.62-6.64,4.23-4.15,3.89-7.96,3.89-7.96h0Z" style="fill:#ed1c24;"/></g><path d="m26.89,10.07h0c0-.08,0-.16,0-.24,0-3.2-2.7-5.98-6.03-5.98-2.44,0-4.53,1.57-5.49,3.57h0c-.95-2-3.05-3.57-5.49-3.57-3.33,0-6.03,2.78-6.03,5.98,0,.08,0,.16,0,.24h0s-.34,3.8,3.89,7.96c1.92,1.93,4.08,3.76,7.62,6.64,3.54-2.88,5.7-4.71,7.62-6.64,4.23-4.15,3.89-7.96,3.89-7.96h0Z" style="fill:#ed1c24; stroke:#231f20; stroke-miterlimit:10;"/></svg>