<?xml version="1.0" encoding="UTF-8"?><svg id="Layer_1" xmlns="http://www.w3.org/2000/svg" viewBox="0 0 28.33 32"><path d="m11.85,32c-.42,0-.83-.05-1.23-.15l-2.73-.69c-2.67-.68-4.29-3.41-3.61-6.08l1.18-4.64-1.73-.44c-2.64-.67-4.25-3.37-3.58-6.02L2.7,3.96C3.26,1.76,5.24.23,7.5.23c.41,0,.82.05,1.22.15l2.65.67c.83-.67,1.87-1.06,2.99-1.06.4,0,.79.05,1.18.15l3.19.81c1.23.31,2.27,1.09,2.92,2.18.12.2.22.4.31.61l2.65.67c1.28.33,2.36,1.13,3.03,2.27.68,1.14.87,2.47.54,3.75l-2.55,10.02c-.56,2.2-2.53,3.73-4.8,3.73,0,0,0,0,0,0-.41,0-.82-.05-1.22-.15l-1.73-.44-1.18,4.64c-.56,2.22-2.56,3.77-4.85,3.77Z" style="fill:#fff;"/><path d="m23.64,8.22l-5.52-1.41.26-1.03c.12-.45-.16-.92-.61-1.03l-3.19-.81c-.45-.12-.92.16-1.03.61l-.26,1.03-5.52-1.41c-.55-.14-1.12.19-1.26.75l-2.55,10.02c-.14.55.19,1.12.75,1.26l5.52,1.41-2.15,8.43c-.15.58.2,1.17.78,1.32l2.73.69c.58.15,1.17-.2,1.32-.78l2.15-8.43,5.52,1.41c.55.14,1.12-.19,1.26-.75l2.55-10.02c.14-.55-.19-1.12-.75-1.26Z"/></svg>