<?xml version="1.0" encoding="UTF-8"?><svg id="Layer_1" xmlns="http://www.w3.org/2000/svg" viewBox="0 0 96 95.66"><path d="m47.93,75.2c-7.96,0-15.35-3.41-20.61-9.38l7.82-5.26-21.32-11.37v25.59l7.82-5.26c12.08,14.5,33.55,16.49,48.05,4.55,4.26-3.55,7.68-8.24,9.81-13.36.57-1.56-.14-3.55-1.71-4.26-1.71-.85-3.7-.14-4.55,1.56,0,.14-.14.14-.14.28-3.98,10.24-14.07,16.92-25.16,16.92Zm26.3-49.04c-12.08-14.5-33.55-16.49-48.05-4.55-4.26,3.55-7.68,8.1-9.81,13.36-.57,1.56.14,3.55,1.71,4.26,1.71.85,3.7.14,4.55-1.56,0-.14.14-.14.14-.28,5.69-13.93,21.61-20.75,35.54-15.07,3.98,1.56,7.53,4.12,10.38,7.39l-7.82,5.26,21.32,11.37v-25.59s-7.96,5.4-7.96,5.4Z"/><g><path d="m47.97,95.66c-10.02,0-19.63-3.09-27.63-8.72-2.03,1.09-4.28,1.64-6.53,1.64s-4.46-.54-6.49-1.62c-4.51-2.4-7.32-7.09-7.32-12.19v-25.59c0-3.15,1.07-6.14,2.96-8.54-.9-3.33-.82-6.95.43-10.39.06-.16.12-.31.18-.47,2.93-7.22,7.69-13.72,13.77-18.78.02-.02.04-.03.06-.05C25.97,3.89,36.79,0,47.89,0c10,0,19.59,3.08,27.58,8.68,2.08-1.16,4.4-1.74,6.72-1.74s4.44.53,6.47,1.61c4.52,2.39,7.34,7.09,7.34,12.2v25.59c0,3.22-1.12,6.28-3.09,8.71.89,3.32.81,6.93-.44,10.37-.07.2-.15.4-.23.59-3.02,7.25-7.76,13.7-13.72,18.66-.02.02-.04.03-.06.05-8.57,7.06-19.4,10.94-30.49,10.94Zm-6.34-47.3c4.28,2.28,7.05,6.64,7.29,11.48.03.5.02,1,0,1.5,4.91-.36,9.26-3.34,11.13-7.67.31-.89.71-1.74,1.19-2.55.04-.08.09-.15.13-.23l-7.01-3.74c-4.28-2.28-7.05-6.64-7.29-11.48-.03-.51-.02-1.01,0-1.51-4.89.39-9.31,3.5-11.34,8.02-.3.82-.67,1.6-1.12,2.35-.01.02-.02.04-.04.07l7.06,3.76Z" style="fill:#fff;"/><path d="m47.93,75.2c-7.96,0-15.35-3.41-20.61-9.38l7.82-5.26-21.32-11.37v25.59l7.82-5.26c12.08,14.5,33.55,16.49,48.05,4.55,4.26-3.55,7.68-8.24,9.81-13.36.57-1.56-.14-3.55-1.71-4.26-1.71-.85-3.7-.14-4.55,1.56,0,.14-.14.14-.14.28-3.98,10.24-14.07,16.92-25.16,16.92Zm26.3-49.04c-12.08-14.5-33.55-16.49-48.05-4.55-4.26,3.55-7.68,8.1-9.81,13.36-.57,1.56.14,3.55,1.71,4.26,1.71.85,3.7.14,4.55-1.56,0-.14.14-.14.14-.28,5.69-13.93,21.61-20.75,35.54-15.07,3.98,1.56,7.53,4.12,10.38,7.39l-7.82,5.26,21.32,11.37v-25.59s-7.96,5.4-7.96,5.4Z"/></g></svg>