<?xml version="1.0" encoding="UTF-8"?><svg id="Layer_1" xmlns="http://www.w3.org/2000/svg" viewBox="0 0 22.14 32"><path d="m10.42,32c-.38,0-.77-.05-1.14-.14l-1.62-.41c-2.46-.63-3.96-3.14-3.33-5.6l.12-.47-1.06-.27c-1.16-.3-2.14-1.03-2.76-2.06-.61-1.03-.79-2.24-.49-3.41l.47-1.83c.51-1.99,2.3-3.39,4.36-3.39.27,0,.54.02.81.07l2.01-7.9c.2-.8.62-1.53,1.2-2.11l3.15-3.14c.86-.86,2.01-1.33,3.22-1.33,2.04,0,3.8,1.31,4.38,3.27l1.26,4.26c.23.79.25,1.63.05,2.43l-2.01,7.9c1.03.34,1.9,1.03,2.46,1.98.61,1.03.79,2.24.49,3.41l-.47,1.83c-.51,2-2.3,3.39-4.36,3.39,0,0,0,0,0,0-.37,0-.75-.05-1.11-.14l-1.06-.27-.12.47c-.52,2.04-2.36,3.47-4.47,3.47Z" style="fill:#fff;"/><path d="m17.75,21.69l-3.63-.92,3.01-11.81c.02-.09.02-.19,0-.28l-.74-2.48-.53-1.78c-.11-.38-.59-.5-.86-.22l-1.32,1.31-1.83,1.83c-.07.07-.11.15-.14.24l-3.01,11.81-3.63-.92c-.24-.06-.49.08-.55.33l-.47,1.83c-.06.24.08.49.33.55l4.98,1.27-1.12,4.4c-.08.3.11.61.41.68l1.62.41c.3.08.61-.11.68-.41l1.12-4.4,4.98,1.27c.24.06.49-.08.55-.33l.47-1.83c.06-.24-.08-.49-.33-.55Z"/></svg>