<?xml version="1.0" encoding="UTF-8"?><svg id="Layer_1" xmlns="http://www.w3.org/2000/svg" viewBox="0 0 31.88 28.52"><path d="m14.46,28.52c-1.84,0-3.46-.97-4.36-2.43l-1.91,1.42c-.89.66-1.95,1.01-3.06,1.01-2.83,0-5.13-2.3-5.13-5.13V5.13C0,2.3,2.3,0,5.13,0c1.11,0,2.17.35,3.06,1.01l1.91,1.42c.91-1.46,2.52-2.43,4.36-2.43,1.11,0,2.17.35,3.06,1.01l12.29,9.13c1.3.96,2.07,2.5,2.07,4.12s-.78,3.16-2.07,4.12l-12.29,9.13c-.89.66-1.95,1.01-3.06,1.01h0Z" style="fill:#fff;"/><path d="m27.05,13.86l-6.27-4.66-6.02-4.47c-.33-.25-.8,0-.8.4v5.94l-2.52-1.87-6.02-4.47c-.33-.25-.8,0-.8.4v18.26c0,.41.47.65.8.4l6.02-4.47,2.52-1.87v5.94c0,.41.47.65.8.4l6.02-4.47,6.27-4.66c.27-.2.27-.6,0-.8Z"/><path d="m27.05,13.86c.27.2.27.6,0,.8l-6.27,4.66-6.02,4.47c-.33.25-.8,0-.8-.4V5.13c0-.41.47-.65.8-.4l6.02,4.47,6.27,4.66Z" style="fill:#00a651; stroke:#000; stroke-miterlimit:10;"/><path d="m17.72,13.86c.27.2.27.6,0,.8l-6.27,4.66-6.02,4.47c-.33.25-.8,0-.8-.4v-9.13s0-9.13,0-9.13c0-.41.47-.65.8-.4l6.02,4.47,6.27,4.66Z" style="fill:#00a651; stroke:#000; stroke-miterlimit:10;"/></svg>