<?xml version="1.0" encoding="UTF-8"?><svg id="Layer_1" xmlns="http://www.w3.org/2000/svg" viewBox="0 0 32 30.93"><path d="m22.71,30.93c-.83,0-1.65-.2-2.39-.59l-4.32-2.27-4.32,2.27c-.74.39-1.56.59-2.39.59-1.52,0-2.95-.67-3.93-1.83-.98-1.16-1.39-2.68-1.13-4.18l.82-4.81-3.49-3.41C.14,15.33-.35,13.31.26,11.44c.61-1.87,2.2-3.21,4.15-3.5l4.83-.7,2.16-4.37c.87-1.77,2.64-2.86,4.61-2.86s3.74,1.1,4.61,2.87l2.16,4.37,4.83.7c1.95.28,3.54,1.62,4.15,3.5.61,1.87.11,3.89-1.3,5.27l-3.49,3.41.82,4.81c.26,1.5-.16,3.02-1.13,4.18-.98,1.16-2.41,1.83-3.93,1.83h0Z" style="fill:#fff;"/><path d="m16.7,4.79l2.99,6.06c.11.23.33.39.59.43l6.69.97c.64.09.9.88.43,1.33l-4.84,4.72c-.18.18-.27.44-.22.69l1.14,6.66c.11.64-.56,1.12-1.13.82l-5.98-3.15c-.23-.12-.5-.12-.73,0l-5.98,3.15c-.57.3-1.24-.19-1.13-.82l1.14-6.66c.04-.25-.04-.51-.22-.69l-4.84-4.72c-.46-.45-.21-1.24.43-1.33l6.69-.97c.25-.04.47-.2.59-.43l2.99-6.06c.29-.58,1.11-.58,1.4,0Z"/><path d="m16.7,4.79l2.99,6.06c.11.23.33.39.59.43l6.69.97c.64.09.9.88.43,1.33l-4.84,4.72c-.18.18-.27.44-.22.69l1.14,6.66c.11.64-.56,1.12-1.13.82l-5.98-3.15c-.23-.12-.5-.12-.73,0l-5.98,3.15c-.57.3-1.24-.19-1.13-.82l1.14-6.66c.04-.25-.04-.51-.22-.69l-4.84-4.72c-.46-.45-.21-1.24.43-1.33l6.69-.97c.25-.04.47-.2.59-.43l2.99-6.06c.29-.58,1.11-.58,1.4,0Z" style="fill:#fff200; stroke:#000; stroke-linecap:round; stroke-linejoin:round; stroke-width:1.16px;"/></svg>