<?xml version="1.0" encoding="UTF-8"?><svg id="Layer_1" xmlns="http://www.w3.org/2000/svg" viewBox="0 0 128 128"><g><path d="m7.06,1.33h113.88c3.16,0,5.73,2.57,5.73,5.73v113.88c0,3.16-2.57,5.73-5.73,5.73H7.06c-3.16,0-5.73-2.57-5.73-5.73V7.06C1.33,3.9,3.9,1.33,7.06,1.33Z" style="fill:#bfbfbf;"/><path d="m120.94,2.67c2.42,0,4.39,1.97,4.39,4.39v113.88c0,2.42-1.97,4.39-4.39,4.39H7.06c-2.42,0-4.39-1.97-4.39-4.39V7.06c0-2.42,1.97-4.39,4.39-4.39h113.88m0-2.67H7.06C3.16,0,0,3.16,0,7.06v113.88c0,3.9,3.16,7.06,7.06,7.06h113.88c3.9,0,7.06-3.16,7.06-7.06V7.06c0-3.9-3.16-7.06-7.06-7.06h0Z" style="fill:#231f20;"/></g><g><path d="m13.88,11.92h100.24c1.08,0,1.96.88,1.96,1.96v100.24c0,1.08-.88,1.96-1.96,1.96H13.88c-1.08,0-1.96-.88-1.96-1.96V13.88c0-1.08.88-1.96,1.96-1.96Z" style="fill:#1032dd;"/><path d="m114.12,13.25c.35,0,.63.28.63.63v100.24c0,.35-.28.63-.63.63H13.88c-.35,0-.63-.28-.63-.63V13.88c0-.35.28-.63.63-.63h100.24m0-2.67H13.88c-1.82,0-3.29,1.47-3.29,3.29v100.24c0,1.82,1.47,3.29,3.29,3.29h100.24c1.82,0,3.29-1.47,3.29-3.29V13.88c0-1.82-1.47-3.29-3.29-3.29h0Z" style="fill:#231f20;"/></g><circle cx="7.81" cy="7.83" r="1.49" style="fill:#bfbfbf; stroke:#231f20; stroke-miterlimit:10; stroke-width:1.33px;"/><circle cx="7.81" cy="120.62" r="1.49" style="fill:#bfbfbf; stroke:#231f20; stroke-miterlimit:10; stroke-width:1.33px;"/><circle cx="120.21" cy="7.83" r="1.49" style="fill:#bfbfbf; stroke:#231f20; stroke-miterlimit:10; stroke-width:1.33px;"/><circle cx="120.21" cy="120.62" r="1.49" style="fill:#bfbfbf; stroke:#231f20; stroke-miterlimit:10; stroke-width:1.33px;"/></svg>