<?xml version="1.0" encoding="UTF-8"?><svg id="Layer_1" xmlns="http://www.w3.org/2000/svg" viewBox="0 0 96 82.18"><path d="m30.06,82.18c-2.47,0-4.76-.8-6.62-2.16l-7.49-4.33c-.89-.51-1.73-1.11-2.52-1.77C5.12,68.08,0,55.65,0,41.09S5.12,14.09,13.44,8.26c.78-.67,1.63-1.26,2.51-1.77l7.5-4.33c1.85-1.35,4.14-2.15,6.61-2.15h50.94c8.27,0,15.01,6.73,15.01,15.01v52.16c0,8.27-6.73,15.01-15.01,15.01H30.06Z" style="fill:#fff;"/><ellipse cx="24.44" cy="41.09" rx="13.22" ry="25.19" style="fill:#8b5e3c; stroke:#000; stroke-linecap:round; stroke-linejoin:round; stroke-width:2.18px;"/><path d="m33.84,11.22h50.94v59.73h-50.94c-2.09,0-3.78-1.7-3.78-3.78V15.01c0-2.09,1.7-3.78,3.78-3.78Z" transform="translate(114.84 82.18) rotate(180)" style="fill:#aaa; stroke:#000; stroke-linecap:round; stroke-linejoin:round; stroke-width:1.98px;"/><path d="m21.56,26.15c-3.83-2.21-3.83-7.74,0-9.96h0s8.62-4.98,8.62-4.98v19.91l-8.62-4.98h0Z" style="fill:#8b5e3c; stroke:#000; stroke-linecap:round; stroke-linejoin:round; stroke-width:1.98px;"/><path d="m21.56,46.07c-3.83-2.21-3.83-7.74,0-9.96h0s8.62-4.98,8.62-4.98v19.91l-8.62-4.98h0Z" style="fill:#8b5e3c; stroke:#000; stroke-linecap:round; stroke-linejoin:round; stroke-width:1.98px;"/><path d="m21.56,65.98c-3.83-2.21-3.83-7.74,0-9.96h0s8.62-4.98,8.62-4.98v19.91l-8.62-4.98h0Z" style="fill:#8b5e3c; stroke:#000; stroke-linecap:round; stroke-linejoin:round; stroke-width:1.98px;"/></svg>