<?xml version="1.0" encoding="UTF-8"?><svg id="Layer_1" xmlns="http://www.w3.org/2000/svg" viewBox="0 0 85.14 96"><g><path d="m18.94,63.96c-.63,0-1.26-.05-1.9-.15-3.16-.49-5.93-2.17-7.82-4.58-2.93-.91-5.49-2.89-7.07-5.67-1.59-2.78-2-5.99-1.3-8.97-1.12-2.86-1.16-6.09.02-9.07,1.18-2.97,3.43-5.3,6.21-6.61,1.54-2.65,4.04-4.7,7.1-5.63,1.18-.36,2.39-.53,3.59-.53,1.89,0,3.76.44,5.45,1.26.61-.09,1.22-.14,1.83-.14,2.45,0,4.89.73,7,2.18,2.63,1.81,4.4,4.52,5.06,7.52,2.25,2.09,3.69,4.99,3.91,8.18.23,3.19-.79,6.26-2.72,8.65-.23,3.06-1.6,5.99-3.95,8.16-2.33,2.14-5.33,3.26-8.37,3.26-.03,0-.06,0-.09,0-2.03,1.38-4.44,2.14-6.95,2.14Z" style="fill:#fff;"/><polygon points="17.83 46.72 18.94 51.61 21.47 47.28 25.98 49.47 24.18 44.79 28.7 42.63 23.92 41.12 25.05 36.24 20.89 39.03 17.77 35.11 17.37 40.1 12.35 40.09 16.01 43.53 12.87 47.44 17.83 46.72" style="fill:#fbfdfc;"/><path d="m62.8,56.42c-1.56,0-3.13-.3-4.64-.91-2.79-1.13-5.01-3.21-6.33-5.78-2.43-1.57-4.28-3.97-5.14-6.87-.86-2.89-.61-5.92.57-8.56-.29-2.87.44-5.83,2.16-8.3,1.73-2.47,4.25-4.17,7.05-4.89,2.07-2.02,4.83-3.29,7.84-3.48.26-.02.53-.03.79-.03,2.73,0,5.32.9,7.43,2.49,2.87.36,5.58,1.72,7.61,3.96,2.03,2.23,3.12,5.07,3.2,7.96,1.51,2.47,2.13,5.44,1.65,8.42-.48,2.98-2.02,5.6-4.23,7.46-.99,2.71-2.92,5.06-5.55,6.54-1.89,1.06-3.98,1.59-6.05,1.59-.81,0-1.62-.08-2.42-.24-1.27.42-2.59.64-3.93.64Z" style="fill:#fff;"/><polygon points="62.84 39.73 62.8 44.06 65.79 40.93 69.15 43.66 68.56 39.37 72.79 38.45 69.07 36.23 70.98 32.35 66.93 33.88 65.09 29.96 63.76 34.08 59.55 33.08 61.94 36.69 58.53 39.35 62.84 39.73" style="fill:#fbfdfc;"/><path d="m42.63,96c-8.16,0-15.93-3.03-21.92-8.22-2.54-.09-4.95-.96-6.93-2.43-2.87-.34-5.59-1.69-7.64-3.91-2.04-2.22-3.15-5.05-3.25-7.94-1.52-2.46-2.17-5.43-1.7-8.41.46-2.98,1.98-5.61,4.18-7.49.97-2.72,2.89-5.08,5.51-6.57.16-.09.33-.18.5-.27,2.25-5.9,6.14-11.09,11.18-14.9-1.77-1.62-3.06-3.76-3.65-6.2-.87-3.61-.06-7.34,2.06-10.22-.75-3.5.05-7.23,2.33-10.16,2.28-2.93,5.7-4.62,9.28-4.76C34.84,1.75,38.26.05,41.97,0c.05,0,.1,0,.16,0,3.65,0,7.05,1.61,9.35,4.28,3.58.05,7.04,1.66,9.39,4.53,2.35,2.87,3.24,6.58,2.58,10.1,2.19,2.83,3.09,6.54,2.31,10.17-.54,2.49-1.81,4.7-3.58,6.37,4.99,3.61,8.91,8.55,11.29,14.24,5.76,1.9,9.93,7.34,9.93,13.73v14.2c0,7.97-6.48,14.45-14.45,14.45h-10.6c-4.82,2.58-10.18,3.93-15.72,3.93Z" style="fill:#fff;"/><path d="m68.95,61.32h-5.29c-.52-9-6.69-16.48-15.02-18.96v-4.57h-4.49v-6.29l3.3,2.98-.59-6.87,6.81-1.13-5.74-3.83,3.36-6.02-6.57,2.1-2.61-6.39-2.45,6.45-6.62-1.94,3.51,5.94-5.64,3.97,6.83.96-.42,6.89,3.76-3.57v6.75h-4.49v4.57c-8.71,2.59-15.06,10.65-15.06,20.2,0,.22,0,.43.02.65l-1.18,1.26-3.38-2.71.62,4.28-4.22.95,3.73,2.19-1.89,3.89,4.04-1.55,1.87,3.9,1.3-4.13,1.11.26c3.38,7.14,10.64,12.08,19.06,12.08,4.57,0,8.79-1.46,12.24-3.93h14.08c1.16,0,2.1-.94,2.1-2.1v-14.2c0-1.16-.94-2.1-2.1-2.1Z" style="fill:#fbfdfc;"/></g><g><circle cx="42.63" cy="62.57" r="21.08" style="fill:#8dba0f; stroke:#000; stroke-miterlimit:10; stroke-width:2.18px;"/><rect x="36.61" y="37.8" width="12.04" height="6.35" style="fill:#8dba0f; stroke:#000; stroke-miterlimit:10; stroke-width:2.18px;"/><rect x="41.1" y="29.04" width="3.07" height="8.76" style="fill:#00d35a; stroke:#000; stroke-miterlimit:10; stroke-width:2.18px;"/><polygon points="51.31 16.64 47.95 22.66 53.69 26.49 46.88 27.61 47.47 34.49 42.34 29.87 37.33 34.61 37.75 27.73 30.92 26.77 36.56 22.8 33.05 16.86 39.67 18.8 42.12 12.35 44.74 18.74 51.31 16.64" style="fill:#1e4bd8; stroke:#000; stroke-miterlimit:10; stroke-width:2.18px;"/><polygon points="28.7 42.63 24.18 44.79 25.98 49.47 21.47 47.28 18.94 51.61 17.83 46.72 12.87 47.44 16.01 43.53 12.35 40.09 17.37 40.1 17.77 35.11 20.89 39.03 25.05 36.24 23.92 41.12 28.7 42.63" style="fill:#1e4bd8; stroke:#000; stroke-miterlimit:10; stroke-width:2.18px;"/><polygon points="27.65 66 24.26 68.69 26.67 72.29 22.46 71.31 21.15 75.44 19.29 71.53 15.25 73.09 17.14 69.19 13.4 67 17.62 66.05 17.01 61.77 20.38 64.48 23.35 61.32 23.34 65.65 27.65 66" style="fill:#1e4bd8; stroke:#000; stroke-miterlimit:10; stroke-width:2.18px;"/><polygon points="72.79 38.45 68.56 39.37 69.15 43.66 65.79 40.93 62.8 44.06 62.84 39.73 58.53 39.35 61.94 36.69 59.55 33.08 63.76 34.08 65.09 29.96 66.93 33.88 70.98 32.35 69.07 36.23 72.79 38.45" style="fill:#1e4bd8; stroke:#000; stroke-miterlimit:10; stroke-width:2.18px;"/><rect x="51.22" y="61.32" width="19.83" height="18.4" rx="2.1" ry="2.1" style="fill:#29b26a; stroke:#000; stroke-miterlimit:10; stroke-width:2.18px;"/></g></svg>