<?xml version="1.0" encoding="UTF-8"?><svg id="Layer_1" xmlns="http://www.w3.org/2000/svg" viewBox="0 0 90.57 96"><g><path d="m13.16,96c-7.27,0-13.16-5.89-13.16-13.16v-48.49c0-6.01,4.03-11.08,9.53-12.66,2.39-3.32,6.29-5.47,10.69-5.47h3.51c4.4,0,8.3,2.16,10.69,5.47,5.5,1.58,9.53,6.65,9.53,12.66v48.49c0,7.27-5.89,13.16-13.16,13.16H13.16Z" style="fill:#fff;"/><path d="m20.22,10.29h3.51c7.27,0,13.16,5.9,13.16,13.16v4.97c0,7.27-5.9,13.16-13.16,13.16h-3.51c-7.27,0-13.16-5.9-13.16-13.16v-4.97c0-7.27,5.9-13.16,13.16-13.16Z" style="fill:#fff;"/><rect x="20.22" y="23.46" width="3.51" height="4.97" style="fill:#fde25d;"/><rect x="7.05" y="4.38" width="29.84" height="31.3" rx="13.16" ry="13.16" style="fill:#fff;"/><rect x="20.22" y="17.54" width="3.51" height="4.97" style="fill:#fde25d;"/><rect x="46.58" y="10.29" width="29.84" height="31.3" rx="13.16" ry="13.16" style="fill:#fff;"/><rect x="59.74" y="23.46" width="3.51" height="4.97" style="fill:#fde25d;"/><rect x="46.58" y="4.38" width="29.84" height="31.3" rx="13.16" ry="13.16" style="fill:#fff;"/><rect x="59.74" y="17.54" width="3.51" height="4.97" style="fill:#fde25d;"/><rect x="8.81" width="32.37" height="29.22" rx="13.16" ry="13.16" style="fill:#fff;"/><rect x="21.97" y="13.16" width="6.04" height="2.89" style="fill:#fde25d;"/><rect x="17.18" width="32.37" height="29.22" rx="13.16" ry="13.16" style="fill:#fff;"/><rect x="30.34" y="13.16" width="6.04" height="2.89" style="fill:#fde25d;"/><rect x="25.55" width="32.37" height="29.22" rx="13.16" ry="13.16" style="fill:#fff;"/><rect x="38.72" y="13.16" width="6.04" height="2.89" style="fill:#fde25d;"/><rect x="33.92" width="32.37" height="29.22" rx="13.16" ry="13.16" style="fill:#fff;"/><rect x="47.09" y="13.16" width="6.04" height="2.89" style="fill:#fde25d;"/><rect x="42.3" y="0" width="32.37" height="29.22" rx="13.16" ry="13.16" style="fill:#fff;"/><path d="m52.69,96c-7.15,0-12.97-5.7-13.16-12.8-1.64-2.52-2.59-5.53-2.59-8.75v-19.55c0-3.21.94-6.22,2.58-8.74v-11.82c0-6.01,4.03-11.08,9.53-12.66,2.39-3.32,6.29-5.47,10.69-5.47h3.51c4.4,0,8.3,2.16,10.69,5.47,5.5,1.58,9.53,6.65,9.53,12.66v7.24c4.28,2.89,7.1,7.78,7.1,13.32v19.55c0,6.09-3.41,11.39-8.41,14.11-2.13,4.4-6.64,7.44-11.86,7.44h-17.62Z" style="fill:#fff;"/></g><rect x="13.16" y="34.34" width="17.62" height="48.49" style="fill:#992343; stroke:#000; stroke-miterlimit:10; stroke-width:2.32px;"/><rect x="13.16" y="34.34" width="17.62" height="9.21" style="fill:#96e022; stroke:#000; stroke-miterlimit:10; stroke-width:2.32px;"/><rect x="52.69" y="34.34" width="17.62" height="48.49" style="fill:#992343; stroke:#000; stroke-miterlimit:10; stroke-width:2.32px;"/><rect x="52.69" y="34.34" width="17.62" height="9.21" style="fill:#96e022; stroke:#000; stroke-miterlimit:10; stroke-width:2.32px;"/><rect x="20.22" y="29.37" width="3.51" height="4.97" style="fill:none; stroke:#000; stroke-miterlimit:10; stroke-width:2.32px;"/><rect x="20.22" y="23.46" width="3.51" height="4.97" style="fill:none; stroke:#000; stroke-miterlimit:10; stroke-width:2.32px;"/><rect x="20.22" y="17.54" width="3.51" height="4.97" style="fill:none; stroke:#000; stroke-miterlimit:10; stroke-width:2.32px;"/><rect x="59.74" y="29.37" width="3.51" height="4.97" style="fill:none; stroke:#000; stroke-miterlimit:10; stroke-width:2.32px;"/><rect x="59.74" y="23.46" width="3.51" height="4.97" style="fill:none; stroke:#000; stroke-miterlimit:10; stroke-width:2.32px;"/><rect x="59.74" y="17.54" width="3.51" height="4.97" style="fill:none; stroke:#000; stroke-miterlimit:10; stroke-width:2.32px;"/><rect x="23.55" y="11.59" width="2.89" height="6.04" transform="translate(39.6 -10.38) rotate(90)" style="fill:none; stroke:#000; stroke-miterlimit:10; stroke-width:2.32px;"/><rect x="31.92" y="11.59" width="2.89" height="6.04" transform="translate(47.97 -18.75) rotate(90)" style="fill:none; stroke:#000; stroke-miterlimit:10; stroke-width:2.32px;"/><rect x="40.29" y="11.59" width="2.89" height="6.04" transform="translate(56.34 -27.13) rotate(90)" style="fill:none; stroke:#000; stroke-miterlimit:10; stroke-width:2.32px;"/><rect x="48.66" y="11.59" width="2.89" height="6.04" transform="translate(64.72 -35.5) rotate(90)" style="fill:none; stroke:#000; stroke-miterlimit:10; stroke-width:2.32px;"/><rect x="57.03" y="11.59" width="2.89" height="6.04" transform="translate(73.09 -43.87) rotate(90)" style="fill:none; stroke:#000; stroke-miterlimit:10; stroke-width:2.32px;"/><rect x="50.11" y="52.01" width="27.3" height="25.32" rx="2.89" ry="2.89" style="fill:#398883; stroke:#000; stroke-miterlimit:10; stroke-width:2.32px;"/></svg>