<?xml version="1.0" encoding="UTF-8"?><svg id="Layer_1" xmlns="http://www.w3.org/2000/svg" viewBox="0 0 95.9 93.12"><g><path d="m37.56,61.16c-.65,0-1.3-.05-1.95-.16-4.39-.71-8.04-3.76-9.52-7.95l-3.39-9.6-8.04-6.25c-3.51-2.73-5.25-7.16-4.54-11.55s3.76-8.04,7.95-9.52l9.6-3.39,6.25-8.04c2.33-2.99,5.88-4.69,9.6-4.69.65,0,1.3.05,1.95.16,4.39.71,8.04,3.76,9.52,7.95l3.39,9.6,8.04,6.25c3.51,2.73,5.25,7.16,4.54,11.55-.71,4.39-3.76,8.04-7.95,9.52l-9.6,3.39-6.25,8.04c-2.33,2.99-5.88,4.69-9.6,4.69Z" style="fill:#fff;"/><polygon points="37.56 48.99 46 38.15 58.96 33.57 48.12 25.12 43.54 12.16 35.09 23.01 22.13 27.59 32.98 36.03 37.56 48.99" style="fill:#fff;"/><path d="m33.98,93.12c-3.6,0-7.06-1.6-9.39-4.44l-6.47-7.86-9.69-3.13c-4.23-1.37-7.38-4.93-8.21-9.3-.83-4.37.79-8.84,4.22-11.67l7.86-6.47,3.13-9.69c1.37-4.23,4.93-7.38,9.3-8.21.76-.14,1.52-.21,2.27-.21,3.6,0,7.06,1.6,9.39,4.44l6.47,7.86,9.69,3.13c4.23,1.37,7.38,4.93,8.21,9.3.83,4.37-.79,8.84-4.22,11.67l-7.86,6.47-3.13,9.69c-1.37,4.23-4.93,7.38-9.3,8.21-.76.14-1.52.21-2.27.21Z" style="fill:#fff;"/><polygon points="27.01 44.3 22.78 57.38 12.16 66.11 25.24 70.34 33.98 80.95 38.2 67.87 48.82 59.14 35.74 54.91 27.01 44.3" style="fill:#fff;"/><path d="m64.5,90.06c-7.96,0-14.44-6.48-14.44-14.44v-2.17l-2.7-4.94-8.93-4.89c-3.9-2.13-6.33-6.23-6.33-10.67s2.43-8.54,6.33-10.67l8.93-4.89,4.89-8.93c2.13-3.9,6.23-6.33,10.67-6.33s8.54,2.43,10.67,6.33l4.89,8.93,8.93,4.89c3.8,2.08,6.2,6.02,6.32,10.34,1.37,2.21,2.17,4.81,2.17,7.6v15.4c0,7.96-6.48,14.44-14.44,14.44h-16.96Z" style="fill:#fff;"/><path d="m81.46,57.94h-9l9.12-4.99-12.06-6.6-6.6-12.06-6.6,12.06-12.06,6.6,12.06,6.6,5.9,10.79v5.28c0,1.26,1.02,2.28,2.28,2.28h16.96c1.26,0,2.28-1.02,2.28-2.28v-15.4c0-1.26-1.02-2.28-2.28-2.28Z" style="fill:#fff;"/></g><polygon points="43.54 12.16 48.12 25.12 58.96 33.57 46 38.15 37.56 48.99 32.98 36.03 22.13 27.59 35.09 23.01 43.54 12.16" style="fill:#5a2c1d; stroke:#000; stroke-miterlimit:10; stroke-width:2.15px;"/><polygon points="27.01 44.3 35.74 54.91 48.82 59.14 38.2 67.87 33.98 80.95 25.24 70.34 12.16 66.11 22.78 57.38 27.01 44.3" style="fill:#5a2c1d; stroke:#000; stroke-miterlimit:10; stroke-width:2.15px;"/><polygon points="62.92 34.3 69.52 46.36 81.58 52.95 69.52 59.55 62.92 71.61 56.33 59.55 44.27 52.95 56.33 46.36 62.92 34.3" style="fill:#5a2c1d; stroke:#000; stroke-miterlimit:10; stroke-width:2.15px;"/><rect x="62.23" y="57.94" width="21.51" height="19.95" rx="2.28" ry="2.28" style="fill:#a8bc5d; stroke:#000; stroke-miterlimit:10; stroke-width:2.15px;"/><circle cx="30.43" cy="62.31" r="3.72" style="fill:#fff; stroke:#000; stroke-miterlimit:10; stroke-width:2.15px;"/><circle cx="40.55" cy="30.58" r="3.72" style="fill:#fff; stroke:#000; stroke-miterlimit:10; stroke-width:2.15px;"/><circle cx="62.92" cy="52.95" r="3.72" style="fill:#fff; stroke:#000; stroke-miterlimit:10; stroke-width:2.15px;"/></svg>